<svg width="25" height="24" viewBox="0 0 25 24" fill="none" xmlns="http://www.w3.org/2000/svg">
<path d="M10.5 13.229C10.6416 13.4609 10.8097 13.6804 11.0042 13.8828C12.2117 15.1395 14.0522 15.336 15.4576 14.4722C15.718 14.3121 15.9634 14.1157 16.1872 13.8828L19.4266 10.5114C20.8578 9.02184 20.8578 6.60676 19.4266 5.11718C17.9953 3.6276 15.6748 3.62761 14.2435 5.11718L13.53 5.85978" stroke="white" stroke-width="1.5" stroke-linecap="round"/>
<path d="M11.4703 18.14L10.7565 18.8828C9.32526 20.3724 7.00471 20.3724 5.57345 18.8828C4.14218 17.3932 4.14218 14.9782 5.57345 13.4886L8.81287 10.1172C10.2441 8.62761 12.5647 8.6276 13.9959 10.1172C14.1904 10.3195 14.3584 10.539 14.5 10.7708" stroke="white" stroke-width="1.5" stroke-linecap="round"/>
</svg>
