<svg width="25" height="24" viewBox="0 0 25 24" fill="none" xmlns="http://www.w3.org/2000/svg">
<path d="M18.354 12.16C17.971 12.6105 17.2631 12.6138 16.8165 12.1671L12.3329 7.68351C11.8862 7.23686 11.8895 6.529 12.34 6.14596L13.571 5.09939C14.4559 4.34704 15.5349 3.84824 16.7044 3.6509L17.4294 3.52858C18.114 3.41306 18.8339 3.65221 19.3475 4.16577L20.3342 5.15255C20.8478 5.66611 21.0869 6.38601 20.9714 7.07063L20.8491 7.79559C20.6518 8.9651 20.153 10.0441 19.4006 10.929L18.354 12.16Z" fill="white" stroke="white" stroke-width="1.15"/>
<path d="M20 4.5L22 2.5L20 4.5Z" fill="white"/>
<path d="M20 4.5L22 2.5" stroke="white" stroke-width="1.15" stroke-linecap="round" stroke-linejoin="round"/>
<path d="M3 21.5L5 19.5L3 21.5Z" fill="white"/>
<path d="M3 21.5L5 19.5" stroke="white" stroke-width="1.15" stroke-linecap="round" stroke-linejoin="round"/>
<path d="M6.64596 11.84C7.02901 11.3895 7.73686 11.3862 8.18351 11.8329L12.6671 16.3165C13.1138 16.7631 13.1105 17.471 12.66 17.854L11.429 18.9006C10.5441 19.653 9.4651 20.1518 8.29559 20.3491L7.57063 20.4714C6.88601 20.5869 6.16611 20.3478 5.65255 19.8342L4.66577 18.8475C4.15221 18.3339 3.91306 17.614 4.02858 16.9294L4.1509 16.2044C4.34824 15.0349 4.84704 13.9559 5.59939 13.071L6.64596 11.84Z" fill="white" stroke="white" stroke-width="1.15"/>
<path d="M9 12.5L11 10.5L9 12.5ZM12 15.5L14 13.5L12 15.5Z" fill="white"/>
<path d="M9 12.5L11 10.5M12 15.5L14 13.5" stroke="white" stroke-width="1.15" stroke-linecap="round" stroke-linejoin="round"/>
</svg>
