<svg width="25" height="24" viewBox="0 0 25 24" fill="none" xmlns="http://www.w3.org/2000/svg">
<path d="M13.328 6.00096C13.4388 5.68791 13.499 5.35099 13.499 5C13.499 3.34315 12.1559 2 10.499 2C8.84219 2 7.49904 3.34315 7.49904 5C7.49904 5.35099 7.55932 5.68791 7.67008 6.00096C5.38532 6.0093 4.16601 6.09039 3.37772 6.87868C2.58951 7.66689 2.50836 8.88603 2.5 11.1704C2.81251 11.06 3.14876 11 3.49904 11C5.1559 11 6.49904 12.3431 6.49904 14C6.49904 15.6569 5.1559 17 3.49904 17C3.14876 17 2.81251 16.94 2.5 16.8296C2.50836 19.114 2.58951 20.3331 3.37772 21.1213C4.16593 21.9095 5.38508 21.9907 7.66941 21.999C7.55908 21.6865 7.49904 21.3503 7.49904 21C7.49904 19.3431 8.84219 18 10.499 18C12.1559 18 13.499 19.3431 13.499 21C13.499 21.3503 13.439 21.6865 13.3287 21.999C15.613 21.9907 16.8322 21.9095 17.6204 21.1213C18.4086 20.333 18.4897 19.1137 18.4981 16.829C18.8111 16.9397 19.148 17 19.499 17C21.1559 17 22.499 15.6569 22.499 14C22.499 12.3431 21.1559 11 19.499 11C19.148 11 18.8111 11.0603 18.4981 11.171C18.4897 8.88627 18.4086 7.66697 17.6204 6.87868C16.8321 6.09039 15.6128 6.0093 13.328 6.00096Z" fill="white" stroke="white" stroke-linejoin="round"/>
</svg>
