<svg width="25" height="24" viewBox="0 0 25 24" fill="none" xmlns="http://www.w3.org/2000/svg">
<path d="M2.5 11C4.8317 8.55783 8.14323 8.44283 10.5 11M8.99509 4.5C8.99509 5.88071 7.87421 7 6.49153 7C5.10885 7 3.98797 5.88071 3.98797 4.5C3.98797 3.11929 5.10885 2 6.49153 2C7.87421 2 8.99509 3.11929 8.99509 4.5Z" stroke="white" stroke-width="1.5" stroke-linecap="round"/>
<path d="M14.5 22C16.8317 19.5578 20.1432 19.4428 22.5 22M20.9951 15.5C20.9951 16.8807 19.8742 18 18.4915 18C17.1089 18 15.988 16.8807 15.988 15.5C15.988 14.1193 17.1089 13 18.4915 13C19.8742 13 20.9951 14.1193 20.9951 15.5Z" stroke="white" stroke-width="1.5" stroke-linecap="round"/>
<path d="M3.5 14C3.5 17.87 6.63 21 10.5 21L9.5 19" stroke="white" stroke-width="1.5" stroke-linecap="round" stroke-linejoin="round"/>
<path d="M15.5 3H21.5M15.5 6H21.5M15.5 9H19" stroke="white" stroke-width="1.5" stroke-linecap="round" stroke-linejoin="round"/>
</svg>
