<svg width="25" height="24" viewBox="0 0 25 24" fill="none" xmlns="http://www.w3.org/2000/svg">
<path d="M4.76781 18.8447C4.99269 20.515 6.37613 21.8235 8.05966 21.9009C9.47627 21.966 10.9153 22 12.5 22C14.0847 22 15.5237 21.966 16.9403 21.9009C18.6239 21.8235 20.0073 20.515 20.2322 18.8447C20.379 17.7547 20.5 16.6376 20.5 15.5C20.5 14.3624 20.379 13.2453 20.2322 12.1553C20.0073 10.485 18.6239 9.17649 16.9403 9.09909C15.5237 9.03397 14.0847 9 12.5 9C10.9153 9 9.47627 9.03397 8.05966 9.09909C6.37613 9.17649 4.99269 10.485 4.76781 12.1553C4.62104 13.2453 4.5 14.3624 4.5 15.5C4.5 16.6376 4.62104 17.7547 4.76781 18.8447Z" fill="white" stroke="white"/>
<path d="M8 9V6.5C8 4.01472 10.0147 2 12.5 2C14.9853 2 17 4.01472 17 6.5V9" stroke="white" stroke-width="1.5" stroke-linecap="round" stroke-linejoin="round"/>
<path d="M12.4961 15.5H12.5051" stroke="#195CE1" stroke-width="2" stroke-linecap="round" stroke-linejoin="round"/>
</svg>
