<svg width="600" height="600" viewBox="0 0 600 600" fill="none" xmlns="http://www.w3.org/2000/svg">
<rect x="0.5" y="0.5" width="599" height="599" rx="29.5" fill="#0F0F0F"/>
<rect x="0.5" y="0.5" width="599" height="599" rx="29.5" stroke="#131313"/>
<rect x="5" y="85" width="590" height="510" rx="25" fill="#0F0F0F"/>
<rect x="5" y="85" width="590" height="510" rx="25" fill="white" fill-opacity="0.02"/>
<rect x="15" y="95" width="249" height="490" rx="15" fill="white" fill-opacity="0.02"/>
<path d="M31.104 122V110.022H33.2539L37.1304 119.584H37.1802L41.0649 110.022H43.2065V122H41.5132V113.16H41.4551L37.8442 122H36.4663L32.8555 113.16H32.7974V122H31.104ZM46.1699 111.923C45.5889 111.923 45.124 111.458 45.124 110.894C45.124 110.321 45.5889 109.856 46.1699 109.856C46.7593 109.856 47.2158 110.321 47.2158 110.894C47.2158 111.458 46.7593 111.923 46.1699 111.923ZM45.2734 122V113.268H47.0664V122H45.2734ZM52.188 122.174C50.0049 122.174 48.7266 121.095 48.5439 119.501L48.5356 119.427H50.312L50.3286 119.51C50.4946 120.315 51.0923 120.788 52.1963 120.788C53.2754 120.788 53.9229 120.34 53.9229 119.634V119.626C53.9229 119.062 53.6074 118.738 52.6694 118.514L51.2417 118.19C49.5815 117.808 48.7598 117.011 48.7598 115.741V115.733C48.7598 114.172 50.1211 113.102 52.1299 113.102C54.1968 113.102 55.4419 114.255 55.5332 115.741L55.5415 115.841H53.8564L53.8481 115.783C53.7402 115.019 53.1426 114.488 52.1299 114.488C51.167 114.488 50.561 114.944 50.561 115.642V115.65C50.561 116.189 50.918 116.555 51.856 116.779L53.2754 117.103C55.0601 117.518 55.7407 118.223 55.7407 119.477V119.485C55.7407 121.079 54.2466 122.174 52.188 122.174ZM60.1982 122.174C58.4717 122.174 57.6416 121.444 57.6416 119.701V114.695H56.3882V113.268H57.6416V110.993H59.4761V113.268H61.1113V114.695H59.4761V119.593C59.4761 120.481 59.8745 120.747 60.6299 120.747C60.8208 120.747 60.9785 120.73 61.1113 120.713V122.1C60.9038 122.133 60.5635 122.174 60.1982 122.174ZM62.5972 122V113.268H64.3901V114.762H64.4316C64.7139 113.741 65.4443 113.102 66.4404 113.102C66.6978 113.102 66.9219 113.143 67.063 113.168V114.836C66.9219 114.778 66.6064 114.737 66.2578 114.737C65.104 114.737 64.3901 115.492 64.3901 116.795V122H62.5972ZM70.5576 122.158C68.8145 122.158 67.644 121.087 67.644 119.518V119.501C67.644 117.982 68.8228 117.053 70.8896 116.928L73.2637 116.787V116.131C73.2637 115.168 72.6411 114.587 71.5288 114.587C70.4912 114.587 69.8521 115.077 69.7026 115.774L69.686 115.849H67.9927L68.001 115.758C68.1255 114.255 69.4287 113.102 71.5786 113.102C73.7119 113.102 75.0649 114.23 75.0649 115.982V122H73.2637V120.622H73.2305C72.7241 121.56 71.7114 122.158 70.5576 122.158ZM69.4536 119.477C69.4536 120.24 70.0845 120.722 71.0474 120.722C72.3091 120.722 73.2637 119.867 73.2637 118.729V118.049L71.1304 118.182C70.0513 118.248 69.4536 118.721 69.4536 119.46V119.477ZM76.8745 122V110.022H78.6675V122H76.8745ZM80.6348 117.949V116.331H85.9722V117.949H80.6348ZM88.5869 122L93.9077 111.632V111.591H87.5908V110.022H95.7422V111.632L90.5376 122H88.5869ZM97.5601 122V110.022H102.341C104.466 110.022 105.861 111.209 105.861 113.019V113.035C105.861 114.297 104.906 115.467 103.645 115.65V115.683C105.346 115.857 106.45 117.028 106.45 118.605V118.622C106.45 120.722 104.915 122 102.366 122H97.5601ZM101.893 111.541H99.4194V115.127H101.478C103.122 115.127 104.01 114.463 104.01 113.259V113.243C104.01 112.147 103.238 111.541 101.893 111.541ZM101.86 116.563H99.4194V120.481H101.984C103.653 120.481 104.549 119.809 104.549 118.53V118.514C104.549 117.227 103.636 116.563 101.86 116.563ZM116.685 122.199C113.232 122.199 111.074 119.825 111.074 116.015V115.999C111.074 112.197 113.24 109.823 116.685 109.823C120.138 109.823 122.296 112.205 122.296 115.999V116.015C122.296 118.273 121.541 120.033 120.196 121.087L121.773 123.27H119.839L118.818 121.851C118.179 122.083 117.465 122.199 116.685 122.199ZM116.685 120.556C117.075 120.556 117.44 120.506 117.781 120.406L116.287 118.331H118.212L119.134 119.609C119.939 118.821 120.387 117.576 120.387 116.015V115.999C120.387 113.218 118.959 111.466 116.685 111.466C114.419 111.466 112.975 113.209 112.975 115.999V116.015C112.975 118.804 114.411 120.556 116.685 120.556ZM129.593 122V119.618H123.6V117.999L128.688 110.022H131.377V118.057H133.029V119.618H131.377V122H129.593ZM125.326 118.082H129.609V111.491H129.56L125.326 118.032V118.082ZM133.511 124.449V122.83H142.766V124.449H133.511ZM148.079 122.199C145.215 122.199 143.505 119.817 143.505 116.015V115.999C143.505 112.197 145.215 109.823 148.079 109.823C150.934 109.823 152.652 112.197 152.652 115.999V116.015C152.652 119.817 150.934 122.199 148.079 122.199ZM148.079 120.647C149.78 120.647 150.776 118.887 150.776 116.015V115.999C150.776 113.126 149.78 111.383 148.079 111.383C146.369 111.383 145.381 113.126 145.381 115.999V116.015C145.381 118.887 146.369 120.647 148.079 120.647ZM34.1504 142.174C31.9258 142.174 30.498 140.415 30.498 137.634V137.625C30.498 134.845 31.9424 133.102 34.1338 133.102C35.3706 133.102 36.3667 133.724 36.8896 134.753H36.9229V130.022H38.7241V142H36.9229V140.522H36.8896C36.3667 141.543 35.4038 142.174 34.1504 142.174ZM34.6235 140.63C35.9766 140.63 36.9312 139.452 36.9312 137.634V137.625C36.9312 135.816 35.9683 134.637 34.6235 134.637C33.2124 134.637 32.3325 135.783 32.3325 137.625V137.634C32.3325 139.493 33.2041 140.63 34.6235 140.63ZM44.2939 142.174C41.729 142.174 40.1768 140.423 40.1768 137.667V137.659C40.1768 134.928 41.7539 133.102 44.2026 133.102C46.6514 133.102 48.1538 134.861 48.1538 137.484V138.09H41.9697C42.0029 139.742 42.9077 140.705 44.3354 140.705C45.3979 140.705 46.1035 140.157 46.3276 139.501L46.3525 139.435H48.0542L48.0376 139.526C47.7554 140.913 46.4106 142.174 44.2939 142.174ZM44.2109 134.571C43.0488 134.571 42.1523 135.359 41.9946 136.82H46.3774C46.228 135.31 45.3813 134.571 44.2109 134.571ZM49.5483 144.905V133.268H51.3413V134.77H51.3828C51.9058 133.732 52.8687 133.102 54.1138 133.102C56.3384 133.102 57.7661 134.845 57.7661 137.634V137.642C57.7661 140.423 56.3301 142.174 54.1387 142.174C52.9019 142.174 51.8975 141.543 51.3828 140.531H51.3413V144.905H49.5483ZM53.6489 140.63C55.0601 140.63 55.9399 139.485 55.9399 137.642V137.634C55.9399 135.774 55.0518 134.637 53.6489 134.637C52.2876 134.637 51.333 135.816 51.333 137.634V137.642C51.333 139.452 52.2959 140.63 53.6489 140.63ZM59.2271 142V130.022H61.02V142H59.2271ZM66.6147 142.174C64.1079 142.174 62.4727 140.439 62.4727 137.634V137.617C62.4727 134.828 64.1245 133.102 66.6064 133.102C69.0967 133.102 70.7568 134.82 70.7568 137.617V137.634C70.7568 140.448 69.1133 142.174 66.6147 142.174ZM66.623 140.672C68.0259 140.672 68.9224 139.56 68.9224 137.634V137.617C68.9224 135.708 68.0093 134.604 66.6064 134.604C65.2285 134.604 64.3071 135.708 64.3071 137.617V137.634C64.3071 139.568 65.2202 140.672 66.623 140.672ZM72.8403 144.914C72.4917 144.914 72.1182 144.872 71.9023 144.831V143.428C72.0435 143.461 72.251 143.494 72.4917 143.494C73.3384 143.494 73.8032 143.27 74.1021 142.423L74.2515 142.008L71.0723 133.268H73.0146L75.2144 140.373H75.2725L77.4722 133.268H79.3647L76.1108 142.407C75.4634 144.216 74.5503 144.914 72.8403 144.914ZM83.8057 142.174C81.2407 142.174 79.6885 140.423 79.6885 137.667V137.659C79.6885 134.928 81.2656 133.102 83.7144 133.102C86.1631 133.102 87.6655 134.861 87.6655 137.484V138.09H81.4814C81.5146 139.742 82.4194 140.705 83.8472 140.705C84.9097 140.705 85.6152 140.157 85.8394 139.501L85.8643 139.435H87.5659L87.5493 139.526C87.2671 140.913 85.9224 142.174 83.8057 142.174ZM83.7227 134.571C82.5605 134.571 81.6641 135.359 81.5063 136.82H85.8892C85.7397 135.31 84.8931 134.571 83.7227 134.571ZM92.3223 142.174C90.0977 142.174 88.6699 140.415 88.6699 137.634V137.625C88.6699 134.845 90.1143 133.102 92.3057 133.102C93.5425 133.102 94.5386 133.724 95.0615 134.753H95.0947V130.022H96.896V142H95.0947V140.522H95.0615C94.5386 141.543 93.5757 142.174 92.3223 142.174ZM92.7954 140.63C94.1484 140.63 95.103 139.452 95.103 137.634V137.625C95.103 135.816 94.1401 134.637 92.7954 134.637C91.3843 134.637 90.5044 135.783 90.5044 137.625V137.634C90.5044 139.493 91.376 140.63 92.7954 140.63Z" fill="white"/>
<path d="M45.4565 198.176C42.5049 198.176 40.6152 196.03 40.6152 192.661V192.653C40.6152 189.35 42.5049 187.255 45.4565 187.255C47.8882 187.255 49.3457 188.654 49.8364 190.522L49.873 190.661H48.4888L48.4595 190.581C47.9688 189.24 46.9434 188.471 45.4565 188.471C43.2812 188.471 41.9629 190.046 41.9629 192.653V192.661C41.9629 195.319 43.3032 196.96 45.4565 196.96C47.3315 196.96 48.6206 195.744 48.6206 193.972V193.781H45.6396V192.624H49.939V193.627C49.939 196.484 48.2764 198.176 45.4565 198.176ZM51.6309 198V187.431H55.3955C57.3804 187.431 58.7866 188.801 58.7866 190.808V190.822C58.7866 192.829 57.3804 194.228 55.3955 194.228H52.9492V198H51.6309ZM55.0586 188.603H52.9492V193.056H55.0586C56.5674 193.056 57.439 192.229 57.439 190.837V190.822C57.439 189.431 56.5674 188.603 55.0586 188.603ZM64.5068 198.176C61.8848 198.176 60.3027 196.594 60.3027 194.294V187.431H61.6211V194.206C61.6211 195.832 62.6758 196.96 64.5068 196.96C66.3379 196.96 67.3779 195.832 67.3779 194.206V187.431H68.6963V194.294C68.6963 196.594 67.1289 198.176 64.5068 198.176Z" fill="white" fill-opacity="0.4"/>
<path d="M120.974 198V187.431H122.49L127.925 195.246H127.969V187.431H129.595V198H128.086L122.644 190.17H122.6V198H120.974ZM134.531 198L130.767 187.431H132.532L135.417 196.176H135.454L138.34 187.431H140.105L136.34 198H134.531ZM141.277 198V187.431H142.917V198H141.277ZM144.866 198V187.431H148.594C151.729 187.431 153.596 189.357 153.596 192.683V192.697C153.596 196.037 151.743 198 148.594 198H144.866ZM146.506 196.579H148.44C150.681 196.579 151.919 195.209 151.919 192.712V192.697C151.919 190.214 150.667 188.845 148.44 188.845H146.506V196.579ZM155.164 198V187.431H156.804V198H155.164ZM157.969 198L161.814 187.431H163.586L167.424 198H165.703L164.736 195.144H160.664L159.69 198H157.969ZM162.686 189.182L161.104 193.825H164.29L162.715 189.182H162.686ZM171.643 198V187.431H175.745C177.905 187.431 179.268 188.684 179.268 190.668V190.683C179.268 192.119 178.484 193.261 177.217 193.693L179.583 198H177.693L175.54 193.942H173.284V198H171.643ZM173.284 192.595H175.583C176.851 192.595 177.576 191.899 177.576 190.698V190.683C177.576 189.511 176.799 188.808 175.54 188.808H173.284V192.595ZM183.479 198V188.845H180.242V187.431H188.35V188.845H185.12V198H183.479ZM189.038 198L192.554 192.683V192.661L189.075 187.431H191.03L193.645 191.525H193.711L196.333 187.431H198.186L194.604 192.712V192.741L198.12 198H196.201L193.564 193.964H193.506L190.854 198H189.038ZM206.074 198.176C203.818 198.176 202.346 196.945 202.2 195.224L202.192 195.129H203.767L203.774 195.209C203.877 196.147 204.763 196.806 206.074 196.806C207.363 196.806 208.235 196.088 208.235 195.063V195.048C208.235 193.854 207.371 193.188 205.957 193.188H204.675V191.914H205.913C207.122 191.914 207.942 191.203 207.942 190.222V190.207C207.942 189.189 207.253 188.596 206.06 188.596C204.888 188.596 204.067 189.211 203.965 190.192L203.958 190.258H202.419L202.427 190.185C202.588 188.42 203.994 187.255 206.06 187.255C208.162 187.255 209.539 188.369 209.539 189.995V190.009C209.539 191.32 208.601 192.199 207.312 192.47V192.507C208.865 192.646 209.905 193.583 209.905 195.063V195.078C209.905 196.887 208.315 198.176 206.074 198.176ZM215.31 198.176C212.783 198.176 211.274 196.074 211.274 192.719V192.705C211.274 189.35 212.783 187.255 215.31 187.255C217.83 187.255 219.346 189.35 219.346 192.705V192.719C219.346 196.074 217.83 198.176 215.31 198.176ZM215.31 196.806C216.812 196.806 217.69 195.253 217.69 192.719V192.705C217.69 190.17 216.812 188.632 215.31 188.632C213.801 188.632 212.93 190.17 212.93 192.705V192.719C212.93 195.253 213.801 196.806 215.31 196.806ZM224.641 187.255C226.802 187.255 228.794 188.757 228.794 192.558V192.573C228.794 196.096 227.219 198.176 224.575 198.176C222.693 198.176 221.279 197.099 220.942 195.524L220.92 195.437H222.561L222.59 195.51C222.891 196.301 223.579 196.799 224.59 196.799C226.406 196.799 227.146 195.048 227.212 192.954C227.219 192.858 227.219 192.763 227.219 192.668H227.183C226.765 193.62 225.696 194.367 224.26 194.367C222.239 194.367 220.774 192.895 220.774 190.896V190.881C220.774 188.771 222.407 187.255 224.641 187.255ZM224.634 193.034C225.923 193.034 226.897 192.133 226.897 190.881V190.874C226.897 189.621 225.916 188.632 224.656 188.632C223.411 188.632 222.407 189.606 222.407 190.837V190.852C222.407 192.126 223.352 193.034 224.634 193.034ZM234.119 198.176C231.592 198.176 230.083 196.074 230.083 192.719V192.705C230.083 189.35 231.592 187.255 234.119 187.255C236.638 187.255 238.154 189.35 238.154 192.705V192.719C238.154 196.074 236.638 198.176 234.119 198.176ZM234.119 196.806C235.62 196.806 236.499 195.253 236.499 192.719V192.705C236.499 190.17 235.62 188.632 234.119 188.632C232.61 188.632 231.738 190.17 231.738 192.705V192.719C231.738 195.253 232.61 196.806 234.119 196.806Z" fill="white"/>
<path d="M35 220H244" stroke="white" stroke-opacity="0.1" stroke-dasharray="3 3"/>
<path d="M41.0254 271V260.431H44.9878C47.0239 260.431 48.3569 261.676 48.3569 263.581V263.595C48.3569 265.06 47.5513 266.195 46.2329 266.613L48.6792 271H47.1338L44.8706 266.818H42.3438V271H41.0254ZM42.3438 265.653H44.8706C46.2256 265.653 46.9946 264.921 46.9946 263.625V263.61C46.9946 262.35 46.167 261.603 44.812 261.603H42.3438V265.653ZM49.1772 271L53.1104 260.431H54.4141L58.3398 271H56.9556L55.8862 267.975H51.6309L50.5615 271H49.1772ZM53.7476 262.013L52.0337 266.854H55.4907L53.7769 262.013H53.7476ZM59.5557 271V260.431H61.0791L64.7412 269.337H64.7852L68.4473 260.431H69.9707V271H68.7402V262.833H68.6963L65.3198 271H64.2065L60.8301 262.833H60.7861V271H59.5557Z" fill="white" fill-opacity="0.4"/>
<path d="M118.797 271.176C116.637 271.176 114.645 269.674 114.645 265.873V265.858C114.645 262.335 116.219 260.255 118.863 260.255C120.746 260.255 122.159 261.332 122.496 262.907L122.518 262.995H120.87L120.848 262.921C120.548 262.13 119.859 261.632 118.849 261.632C117.032 261.632 116.292 263.383 116.227 265.478C116.219 265.573 116.219 265.668 116.219 265.763H116.256C116.673 264.811 117.743 264.064 119.178 264.064C121.2 264.064 122.657 265.536 122.657 267.536V267.55C122.657 269.66 121.024 271.176 118.797 271.176ZM116.542 267.558C116.542 268.81 117.523 269.799 118.775 269.799C120.028 269.799 121.024 268.825 121.024 267.594V267.58C121.024 266.305 120.086 265.397 118.797 265.397C117.516 265.397 116.542 266.298 116.542 267.55V267.558ZM123.697 273.124L124.298 269.374H125.88L124.811 273.124H123.697ZM129.667 271V262.057H129.63L126.869 263.961V262.409L129.652 260.431H131.271V271H129.667ZM138.873 271V268.898H133.585V267.47L138.075 260.431H140.448V267.521H141.905V268.898H140.448V271H138.873ZM135.108 267.543H138.888V261.728H138.844L135.108 267.499V267.543ZM150.899 271.176C147.875 271.176 145.97 269.066 145.97 265.668V265.661C145.97 262.328 147.875 260.255 150.877 260.255C153.353 260.255 154.906 261.684 155.345 263.588L155.375 263.72H153.69L153.668 263.639C153.221 262.416 152.262 261.706 150.885 261.706C148.863 261.706 147.64 263.178 147.64 265.653V265.661C147.64 268.188 148.9 269.726 150.914 269.726C152.628 269.726 153.814 268.642 153.836 267.038V266.862H151.061V265.521H155.455V266.605C155.455 269.469 153.763 271.176 150.899 271.176ZM157.059 271V260.431H161.278C163.153 260.431 164.383 261.479 164.383 263.075V263.09C164.383 264.203 163.541 265.236 162.428 265.397V265.426C163.929 265.58 164.903 266.613 164.903 268.004V268.019C164.903 269.872 163.548 271 161.3 271H157.059ZM160.882 261.771H158.7V264.936H160.516C161.966 264.936 162.75 264.35 162.75 263.288V263.273C162.75 262.306 162.069 261.771 160.882 261.771ZM160.853 266.203H158.7V269.66H160.963C162.435 269.66 163.226 269.066 163.226 267.938V267.924C163.226 266.789 162.42 266.203 160.853 266.203ZM172.711 260.431L169.854 273.563H168.39L171.253 260.431H172.711ZM176.578 271V269.872L180.299 266.129C181.705 264.723 182.02 264.167 182.02 263.346V263.332C182.013 262.328 181.251 261.61 180.182 261.61C178.944 261.61 178.058 262.445 178.043 263.515V263.559H176.49V263.515C176.49 261.625 178.094 260.255 180.16 260.255C182.188 260.255 183.639 261.53 183.639 263.236V263.251C183.639 264.459 183.075 265.316 181.178 267.191L178.775 269.55V269.616H183.807V271H176.578ZM188.956 271.176C186.7 271.176 185.228 269.945 185.082 268.224L185.074 268.129H186.649L186.656 268.209C186.759 269.147 187.645 269.806 188.956 269.806C190.245 269.806 191.117 269.088 191.117 268.063V268.048C191.117 266.854 190.252 266.188 188.839 266.188H187.557V264.914H188.795C190.003 264.914 190.824 264.203 190.824 263.222V263.207C190.824 262.189 190.135 261.596 188.941 261.596C187.77 261.596 186.949 262.211 186.847 263.192L186.839 263.258H185.301L185.309 263.185C185.47 261.42 186.876 260.255 188.941 260.255C191.043 260.255 192.42 261.369 192.42 262.995V263.009C192.42 264.32 191.483 265.199 190.194 265.47V265.507C191.747 265.646 192.787 266.583 192.787 268.063V268.078C192.787 269.887 191.197 271.176 188.956 271.176ZM193.644 273.124L194.244 269.374H195.826L194.757 273.124H193.644ZM201.415 271.176C199.254 271.176 197.262 269.674 197.262 265.873V265.858C197.262 262.335 198.836 260.255 201.48 260.255C203.363 260.255 204.776 261.332 205.113 262.907L205.135 262.995H203.487L203.465 262.921C203.165 262.13 202.477 261.632 201.466 261.632C199.649 261.632 198.91 263.383 198.844 265.478C198.836 265.573 198.836 265.668 198.836 265.763H198.873C199.291 264.811 200.36 264.064 201.795 264.064C203.817 264.064 205.274 265.536 205.274 267.536V267.55C205.274 269.66 203.641 271.176 201.415 271.176ZM199.159 267.558C199.159 268.81 200.14 269.799 201.393 269.799C202.645 269.799 203.641 268.825 203.641 267.594V267.58C203.641 266.305 202.704 265.397 201.415 265.397C200.133 265.397 199.159 266.298 199.159 267.55V267.558ZM210.694 271.176C208.358 271.176 206.703 269.923 206.703 268.136V268.122C206.703 266.789 207.662 265.734 209.039 265.434V265.397C207.86 265.06 207.091 264.181 207.091 263.061V263.046C207.091 261.435 208.592 260.255 210.694 260.255C212.796 260.255 214.305 261.435 214.305 263.046V263.061C214.305 264.181 213.536 265.06 212.357 265.397V265.434C213.734 265.734 214.686 266.789 214.686 268.122V268.136C214.686 269.923 213.038 271.176 210.694 271.176ZM210.694 264.848C211.874 264.848 212.679 264.167 212.679 263.207V263.192C212.679 262.226 211.866 261.552 210.694 261.552C209.522 261.552 208.717 262.226 208.717 263.192V263.207C208.717 264.167 209.522 264.848 210.694 264.848ZM210.694 269.865C212.042 269.865 213.001 269.096 213.001 268.026V268.012C213.001 266.935 212.049 266.159 210.694 266.159C209.339 266.159 208.387 266.935 208.387 268.012V268.026C208.387 269.096 209.347 269.865 210.694 269.865ZM223.893 271.176C220.868 271.176 218.963 269.066 218.963 265.668V265.661C218.963 262.328 220.868 260.255 223.871 260.255C226.346 260.255 227.899 261.684 228.338 263.588L228.368 263.72H226.683L226.661 263.639C226.214 262.416 225.255 261.706 223.878 261.706C221.856 261.706 220.633 263.178 220.633 265.653V265.661C220.633 268.188 221.893 269.726 223.907 269.726C225.621 269.726 226.808 268.642 226.83 267.038V266.862H224.054V265.521H228.448V266.605C228.448 269.469 226.756 271.176 223.893 271.176ZM230.052 271V260.431H234.271C236.146 260.431 237.376 261.479 237.376 263.075V263.09C237.376 264.203 236.534 265.236 235.421 265.397V265.426C236.922 265.58 237.896 266.613 237.896 268.004V268.019C237.896 269.872 236.542 271 234.293 271H230.052ZM233.875 261.771H231.693V264.936H233.509C234.959 264.936 235.743 264.35 235.743 263.288V263.273C235.743 262.306 235.062 261.771 233.875 261.771ZM233.846 266.203H231.693V269.66H233.956C235.428 269.66 236.219 269.066 236.219 267.938V267.924C236.219 266.789 235.414 266.203 233.846 266.203Z" fill="white"/>
<path d="M35 293H244" stroke="white" stroke-opacity="0.1" stroke-dasharray="3 3"/>
<path d="M43.6987 344V334.618H40.3662V333.431H48.3496V334.618H45.0171V344H43.6987ZM49.6094 344V333.431H50.8838V337.599H50.9131C51.3232 336.742 52.1509 336.236 53.2861 336.236C54.9048 336.236 56.0107 337.489 56.0107 339.334V344H54.7363V339.554C54.7363 338.177 54.0332 337.364 52.8467 337.364C51.6675 337.364 50.8838 338.258 50.8838 339.554V344H49.6094ZM57.6294 344V336.383H58.9038V337.672H58.9331C59.1895 336.793 59.8486 336.236 60.7056 336.236C60.9253 336.236 61.1157 336.273 61.2183 336.288V337.525C61.1157 337.489 60.8447 337.452 60.5371 337.452C59.5483 337.452 58.9038 338.141 58.9038 339.298V344H57.6294ZM65.0488 344.146C62.9321 344.146 61.5186 342.616 61.5186 340.191V340.177C61.5186 337.752 62.9395 336.236 65.0415 336.236C67.1436 336.236 68.5718 337.745 68.5718 340.177V340.191C68.5718 342.623 67.1509 344.146 65.0488 344.146ZM65.0562 343.019C66.3965 343.019 67.2681 341.979 67.2681 340.191V340.177C67.2681 338.39 66.3892 337.364 65.0415 337.364C63.7158 337.364 62.8223 338.397 62.8223 340.177V340.191C62.8223 341.986 63.7085 343.019 65.0562 343.019ZM72.4609 344.146C70.791 344.146 69.8242 343.062 69.8242 341.327V336.383H71.0986V341.1C71.0986 342.337 71.6772 343.019 72.8491 343.019C74.0503 343.019 74.834 342.162 74.834 340.865V336.383H76.1084V344H74.834V342.916H74.8047C74.3945 343.626 73.6182 344.146 72.4609 344.146ZM80.9937 346.71C79.1113 346.71 77.9248 345.824 77.6758 344.696L77.6611 344.63H78.9429L78.9722 344.696C79.2139 345.245 79.939 345.582 80.979 345.582C82.3193 345.582 83.0811 344.842 83.0811 343.663V342.689H83.0518C82.5977 343.531 81.7188 344.073 80.6274 344.073C78.7085 344.073 77.3975 342.528 77.3975 340.147V340.14C77.3975 337.774 78.7231 336.236 80.6567 336.236C81.7334 336.236 82.583 336.822 83.0518 337.672H83.0811V336.383H84.3555V343.788C84.3555 345.553 83.0591 346.71 80.9937 346.71ZM80.9058 342.945C82.2021 342.945 83.0811 341.839 83.0811 340.147V340.14C83.0811 338.463 82.1948 337.364 80.9058 337.364C79.5508 337.364 78.7012 338.448 78.7012 340.14V340.147C78.7012 341.876 79.5508 342.945 80.9058 342.945ZM86.0693 344V333.431H87.3438V337.599H87.373C87.7832 336.742 88.6108 336.236 89.7461 336.236C91.3647 336.236 92.4707 337.489 92.4707 339.334V344H91.1963V339.554C91.1963 338.177 90.4932 337.364 89.3066 337.364C88.1274 337.364 87.3438 338.258 87.3438 339.554V344H86.0693ZM94.0894 346.563V336.383H95.3638V337.672H95.3931C95.8691 336.786 96.7188 336.236 97.8101 336.236C99.7583 336.236 101.047 337.789 101.047 340.191V340.199C101.047 342.601 99.7437 344.146 97.832 344.146C96.7554 344.146 95.8691 343.604 95.3931 342.726H95.3638V346.563H94.0894ZM97.561 343.019C98.9087 343.019 99.7437 341.935 99.7437 340.199V340.191C99.7437 338.441 98.9087 337.364 97.561 337.364C96.272 337.364 95.3564 338.485 95.3564 340.191V340.199C95.3564 341.898 96.2793 343.019 97.561 343.019ZM104.937 344.146C103.267 344.146 102.3 343.062 102.3 341.327V336.383H103.574V341.1C103.574 342.337 104.153 343.019 105.325 343.019C106.526 343.019 107.31 342.162 107.31 340.865V336.383H108.584V344H107.31V342.916H107.28C106.87 343.626 106.094 344.146 104.937 344.146ZM112.722 344.146C111.323 344.146 110.635 343.517 110.635 342.059V337.438H109.521V336.383H110.635V334.325H111.953V336.383H113.403V337.438H111.953V342.052C111.953 342.865 112.312 343.092 112.993 343.092C113.147 343.092 113.293 343.07 113.403 343.062V344.095C113.242 344.117 112.971 344.146 112.722 344.146Z" fill="white" fill-opacity="0.4"/>
<path d="M158.82 344V342.872L162.541 339.129C163.947 337.723 164.262 337.167 164.262 336.346V336.332C164.255 335.328 163.493 334.61 162.424 334.61C161.186 334.61 160.3 335.445 160.285 336.515V336.559H158.732V336.515C158.732 334.625 160.336 333.255 162.402 333.255C164.431 333.255 165.881 334.53 165.881 336.236V336.251C165.881 337.459 165.317 338.316 163.42 340.191L161.018 342.55V342.616H166.049V344H158.82ZM171.337 333.255C173.498 333.255 175.49 334.757 175.49 338.558V338.573C175.49 342.096 173.916 344.176 171.271 344.176C169.389 344.176 167.976 343.099 167.639 341.524L167.617 341.437H169.257L169.287 341.51C169.587 342.301 170.275 342.799 171.286 342.799C173.103 342.799 173.842 341.048 173.908 338.954C173.916 338.858 173.916 338.763 173.916 338.668H173.879C173.461 339.62 172.392 340.367 170.957 340.367C168.935 340.367 167.47 338.895 167.47 336.896V336.881C167.47 334.771 169.104 333.255 171.337 333.255ZM171.33 339.034C172.619 339.034 173.593 338.133 173.593 336.881V336.874C173.593 335.621 172.612 334.632 171.352 334.632C170.107 334.632 169.104 335.606 169.104 336.837V336.852C169.104 338.126 170.048 339.034 171.33 339.034ZM176.12 346.124L176.721 342.374H178.303L177.233 346.124H176.12ZM183.854 344.176C181.738 344.176 180.266 342.894 180.119 341.151L180.112 341.063H181.679L181.687 341.122C181.826 342.074 182.69 342.806 183.869 342.806C185.202 342.806 186.132 341.883 186.132 340.572V340.558C186.125 339.261 185.195 338.346 183.884 338.346C183.232 338.346 182.668 338.536 182.243 338.917C182.045 339.085 181.877 339.291 181.738 339.525H180.302L180.822 333.431H187.121V334.815H182.148L181.826 338.163H181.862C182.338 337.452 183.217 337.049 184.257 337.049C186.279 337.049 187.736 338.507 187.736 340.528V340.543C187.736 342.689 186.132 344.176 183.854 344.176ZM194.782 344.154C193.259 344.154 192.526 343.509 192.526 341.971V337.555H191.42V336.295H192.526V334.288H194.145V336.295H195.588V337.555H194.145V341.876C194.145 342.66 194.497 342.894 195.163 342.894C195.332 342.894 195.471 342.879 195.588 342.865V344.088C195.405 344.117 195.104 344.154 194.782 344.154ZM200.019 344.154C197.807 344.154 196.364 342.623 196.364 340.147V340.133C196.364 337.672 197.822 336.148 200.012 336.148C202.209 336.148 203.674 337.665 203.674 340.133V340.147C203.674 342.63 202.224 344.154 200.019 344.154ZM200.026 342.828C201.264 342.828 202.055 341.847 202.055 340.147V340.133C202.055 338.448 201.25 337.474 200.012 337.474C198.796 337.474 197.983 338.448 197.983 340.133V340.147C197.983 341.854 198.789 342.828 200.026 342.828ZM204.985 344V333.431H206.567V339.583H206.604L209.694 336.295H211.555L208.391 339.62L211.679 344H209.841L207.226 340.572L206.567 341.224V344H204.985ZM215.393 344.154C213.129 344.154 211.76 342.608 211.76 340.177V340.169C211.76 337.76 213.151 336.148 215.312 336.148C217.473 336.148 218.798 337.701 218.798 340.016V340.55H213.342C213.371 342.008 214.169 342.857 215.429 342.857C216.367 342.857 216.989 342.374 217.187 341.795L217.209 341.737H218.71L218.696 341.817C218.447 343.041 217.26 344.154 215.393 344.154ZM215.319 337.445C214.294 337.445 213.503 338.141 213.364 339.43H217.231C217.099 338.097 216.352 337.445 215.319 337.445ZM220.029 344V336.295H221.611V337.459H221.647C222.05 336.676 222.841 336.148 224.006 336.148C225.698 336.148 226.672 337.24 226.672 339.012V344H225.083V339.312C225.083 338.155 224.541 337.503 223.442 337.503C222.329 337.503 221.611 338.309 221.611 339.51V344H220.029ZM231.74 333.431L228.884 346.563H227.419L230.283 333.431H231.74ZM235.41 344.154C233.483 344.154 232.355 343.202 232.194 341.795L232.187 341.729H233.754L233.769 341.803C233.916 342.513 234.443 342.931 235.417 342.931C236.369 342.931 236.94 342.535 236.94 341.913V341.905C236.94 341.407 236.662 341.122 235.834 340.924L234.575 340.638C233.11 340.301 232.385 339.598 232.385 338.478V338.47C232.385 337.093 233.586 336.148 235.358 336.148C237.182 336.148 238.281 337.167 238.361 338.478L238.369 338.565H236.882L236.875 338.514C236.779 337.84 236.252 337.372 235.358 337.372C234.509 337.372 233.974 337.774 233.974 338.39V338.397C233.974 338.873 234.289 339.195 235.117 339.393L236.369 339.679C237.944 340.045 238.544 340.667 238.544 341.773V341.781C238.544 343.187 237.226 344.154 235.41 344.154Z" fill="white"/>
<path d="M35 366H244" stroke="white" stroke-opacity="0.1" stroke-dasharray="3 3"/>
<rect x="274" y="95" width="311" height="490" rx="15" fill="white" fill-opacity="0.02"/>
<circle cx="291.5" cy="115.5" r="2.5" fill="#44CF73"/>
<path d="M303.805 121.188C300.672 121.188 298.656 118.906 298.656 115.359V115.352C298.656 111.805 300.664 109.539 303.805 109.539C306.148 109.539 307.969 110.961 308.398 113.094L308.414 113.172H306.992L306.938 113C306.5 111.633 305.391 110.836 303.805 110.836C301.555 110.836 300.102 112.609 300.102 115.352V115.359C300.102 118.102 301.562 119.891 303.805 119.891C305.383 119.891 306.477 119.109 306.969 117.625L306.992 117.555H308.414L308.398 117.633C307.969 119.789 306.164 121.188 303.805 121.188ZM313.234 121.156C310.977 121.156 309.469 119.523 309.469 116.938V116.922C309.469 114.336 310.984 112.719 313.227 112.719C315.469 112.719 316.992 114.328 316.992 116.922V116.938C316.992 119.531 315.477 121.156 313.234 121.156ZM313.242 119.953C314.672 119.953 315.602 118.844 315.602 116.938V116.922C315.602 115.016 314.664 113.922 313.227 113.922C311.812 113.922 310.859 115.023 310.859 116.922V116.938C310.859 118.852 311.805 119.953 313.242 119.953ZM318.367 121V112.875H319.727V114.031H319.758C320.195 113.273 321.023 112.719 322.258 112.719C324.039 112.719 325.07 113.875 325.07 115.727V121H323.711V115.969C323.711 114.648 323.094 113.922 321.844 113.922C320.562 113.922 319.727 114.836 319.727 116.219V121H318.367ZM326.805 121V112.875H328.164V114.031H328.195C328.633 113.273 329.461 112.719 330.695 112.719C332.477 112.719 333.508 113.875 333.508 115.727V121H332.148V115.969C332.148 114.648 331.531 113.922 330.281 113.922C329 113.922 328.164 114.836 328.164 116.219V121H326.805ZM338.586 121.156C336.25 121.156 334.844 119.523 334.844 116.969V116.961C334.844 114.445 336.281 112.719 338.5 112.719C340.719 112.719 342.07 114.367 342.07 116.805V117.305H336.219C336.25 118.977 337.172 119.953 338.617 119.953C339.648 119.953 340.375 119.438 340.609 118.742L340.633 118.672H341.969L341.953 118.75C341.688 120.094 340.359 121.156 338.586 121.156ZM338.492 113.922C337.312 113.922 336.391 114.727 336.242 116.242H340.688C340.555 114.664 339.68 113.922 338.492 113.922ZM346.812 121.156C344.508 121.156 343.047 119.516 343.047 116.93V116.922C343.047 114.359 344.539 112.719 346.797 112.719C348.82 112.719 350.016 114.062 350.188 115.453L350.195 115.516H348.867L348.852 115.453C348.648 114.641 347.992 113.922 346.797 113.922C345.383 113.922 344.438 115.094 344.438 116.938V116.945C344.438 118.836 345.406 119.953 346.812 119.953C347.922 119.953 348.633 119.328 348.859 118.422L348.875 118.359H350.211L350.203 118.414C349.984 119.961 348.648 121.156 346.812 121.156ZM354.102 121.156C352.609 121.156 351.875 120.484 351.875 118.93V114H350.688V112.875H351.875V110.68H353.281V112.875H354.828V114H353.281V118.922C353.281 119.789 353.664 120.031 354.391 120.031C354.555 120.031 354.711 120.008 354.828 120V121.102C354.656 121.125 354.367 121.156 354.102 121.156ZM359.398 121.156C357.062 121.156 355.656 119.523 355.656 116.969V116.961C355.656 114.445 357.094 112.719 359.312 112.719C361.531 112.719 362.883 114.367 362.883 116.805V117.305H357.031C357.062 118.977 357.984 119.953 359.43 119.953C360.461 119.953 361.188 119.438 361.422 118.742L361.445 118.672H362.781L362.766 118.75C362.5 120.094 361.172 121.156 359.398 121.156ZM359.305 113.922C358.125 113.922 357.203 114.727 357.055 116.242H361.5C361.367 114.664 360.492 113.922 359.305 113.922ZM367.312 121.156C365.234 121.156 363.859 119.5 363.859 116.938V116.93C363.859 114.367 365.25 112.719 367.289 112.719C368.438 112.719 369.383 113.297 369.891 114.234H369.922V109.727H371.281V121H369.922V119.625H369.891C369.383 120.57 368.477 121.156 367.312 121.156ZM367.578 119.953C368.953 119.953 369.93 118.758 369.93 116.938V116.93C369.93 115.117 368.945 113.922 367.578 113.922C366.141 113.922 365.25 115.078 365.25 116.93V116.938C365.25 118.805 366.141 119.953 367.578 119.953ZM379.039 121.156C377.547 121.156 376.812 120.484 376.812 118.93V114H375.625V112.875H376.812V110.68H378.219V112.875H379.766V114H378.219V118.922C378.219 119.789 378.602 120.031 379.328 120.031C379.492 120.031 379.648 120.008 379.766 120V121.102C379.594 121.125 379.305 121.156 379.039 121.156ZM384.359 121.156C382.102 121.156 380.594 119.523 380.594 116.938V116.922C380.594 114.336 382.109 112.719 384.352 112.719C386.594 112.719 388.117 114.328 388.117 116.922V116.938C388.117 119.531 386.602 121.156 384.359 121.156ZM384.367 119.953C385.797 119.953 386.727 118.844 386.727 116.938V116.922C386.727 115.016 385.789 113.922 384.352 113.922C382.938 113.922 381.984 115.023 381.984 116.922V116.938C381.984 118.852 382.93 119.953 384.367 119.953ZM392.984 121V109.727H397.211C399.383 109.727 400.805 111.055 400.805 113.086V113.102C400.805 114.664 399.945 115.875 398.539 116.32L401.148 121H399.5L397.086 116.539H394.391V121H392.984ZM394.391 115.297H397.086C398.531 115.297 399.352 114.516 399.352 113.133V113.117C399.352 111.773 398.469 110.977 397.023 110.977H394.391V115.297ZM405.43 121V110.992H401.875V109.727H410.391V110.992H406.836V121H405.43ZM411.133 121L414.977 115.336V115.305L411.18 109.727H412.875L415.891 114.266H415.938L418.984 109.727H420.586L416.688 115.375V115.406L420.5 121H418.812L415.812 116.5H415.766L412.727 121H411.133ZM428.93 121.188C426.602 121.188 425.094 119.891 424.945 118.109L424.938 118.016H426.289L426.297 118.094C426.414 119.203 427.43 119.969 428.93 119.969C430.406 119.969 431.414 119.141 431.414 117.945V117.93C431.414 116.547 430.422 115.773 428.844 115.773H427.43V114.586H428.781C430.125 114.586 431.062 113.758 431.062 112.633V112.617C431.062 111.438 430.289 110.758 428.914 110.758C427.586 110.758 426.641 111.461 426.523 112.602L426.516 112.68H425.164L425.172 112.602C425.352 110.766 426.805 109.539 428.914 109.539C431.062 109.539 432.477 110.734 432.477 112.445V112.461C432.477 113.852 431.492 114.805 430.086 115.102V115.133C431.727 115.273 432.844 116.297 432.844 117.898V117.914C432.844 119.797 431.188 121.188 428.93 121.188ZM438.531 121.188C435.938 121.188 434.398 118.945 434.398 115.367V115.352C434.398 111.773 435.938 109.539 438.531 109.539C441.125 109.539 442.68 111.773 442.68 115.352V115.367C442.68 118.945 441.125 121.188 438.531 121.188ZM438.531 119.961C440.25 119.961 441.266 118.195 441.266 115.367V115.352C441.266 112.523 440.25 110.773 438.531 110.773C436.812 110.773 435.812 112.523 435.812 115.352V115.367C435.812 118.195 436.812 119.961 438.531 119.961ZM448.273 109.539C450.352 109.539 452.555 110.977 452.555 115.156V115.172C452.555 118.969 450.938 121.188 448.18 121.188C446.266 121.188 444.836 120.094 444.461 118.453L444.438 118.352H445.867L445.898 118.438C446.234 119.367 447.039 119.945 448.195 119.945C450.297 119.945 451.125 117.906 451.188 115.539C451.195 115.461 451.195 115.383 451.195 115.297H451.164C450.711 116.297 449.555 117.109 448.023 117.109C445.875 117.109 444.281 115.523 444.281 113.383V113.367C444.281 111.148 445.969 109.539 448.273 109.539ZM448.266 115.875C449.742 115.875 450.859 114.828 450.859 113.391V113.383C450.859 111.938 449.734 110.789 448.289 110.789C446.852 110.789 445.711 111.914 445.711 113.336V113.352C445.711 114.82 446.781 115.875 448.266 115.875ZM458.109 121.188C455.516 121.188 453.977 118.945 453.977 115.367V115.352C453.977 111.773 455.516 109.539 458.109 109.539C460.703 109.539 462.258 111.773 462.258 115.352V115.367C462.258 118.945 460.703 121.188 458.109 121.188ZM458.109 119.961C459.828 119.961 460.844 118.195 460.844 115.367V115.352C460.844 112.523 459.828 110.773 458.109 110.773C456.391 110.773 455.391 112.523 455.391 115.352V115.367C455.391 118.195 456.391 119.961 458.109 119.961Z" fill="white"/>
<rect x="289" y="131" width="135" height="30" rx="15" fill="#202020"/>
<path d="M301.957 151V141.136H305.655C307.556 141.136 308.8 142.298 308.8 144.075V144.089C308.8 145.456 308.048 146.516 306.817 146.905L309.101 151H307.658L305.546 147.097H303.188V151H301.957ZM303.188 146.01H305.546C306.811 146.01 307.528 145.326 307.528 144.116V144.103C307.528 142.927 306.756 142.229 305.491 142.229H303.188V146.01ZM312.594 151.137C311.035 151.137 310.133 150.125 310.133 148.505V143.891H311.322V148.293C311.322 149.448 311.862 150.084 312.956 150.084C314.077 150.084 314.809 149.284 314.809 148.074V143.891H315.998V151H314.809V149.988H314.781C314.398 150.651 313.674 151.137 312.594 151.137ZM317.55 151V143.891H318.739V144.902H318.767C319.149 144.239 319.874 143.754 320.954 143.754C322.513 143.754 323.415 144.766 323.415 146.386V151H322.226V146.598C322.226 145.442 321.686 144.807 320.592 144.807C319.471 144.807 318.739 145.606 318.739 146.816V151H317.55ZM324.933 151V143.891H326.122V144.902H326.149C326.532 144.239 327.257 143.754 328.337 143.754C329.896 143.754 330.798 144.766 330.798 146.386V151H329.608V146.598C329.608 145.442 329.068 144.807 327.975 144.807C326.854 144.807 326.122 145.606 326.122 146.816V151H324.933ZM332.985 142.688C332.575 142.688 332.24 142.353 332.24 141.942C332.24 141.525 332.575 141.197 332.985 141.197C333.402 141.197 333.73 141.525 333.73 141.942C333.73 142.353 333.402 142.688 332.985 142.688ZM332.391 151V143.891H333.58V151H332.391ZM335.2 151V143.891H336.39V144.902H336.417C336.8 144.239 337.524 143.754 338.604 143.754C340.163 143.754 341.065 144.766 341.065 146.386V151H339.876V146.598C339.876 145.442 339.336 144.807 338.242 144.807C337.121 144.807 336.39 145.606 336.39 146.816V151H335.2ZM345.591 153.529C343.834 153.529 342.727 152.702 342.494 151.649L342.48 151.588H343.677L343.704 151.649C343.93 152.162 344.606 152.477 345.577 152.477C346.828 152.477 347.539 151.786 347.539 150.686V149.776H347.512C347.088 150.562 346.268 151.068 345.249 151.068C343.458 151.068 342.234 149.626 342.234 147.404V147.397C342.234 145.189 343.472 143.754 345.276 143.754C346.281 143.754 347.074 144.301 347.512 145.094H347.539V143.891H348.729V150.802C348.729 152.449 347.519 153.529 345.591 153.529ZM345.509 150.016C346.719 150.016 347.539 148.983 347.539 147.404V147.397C347.539 145.832 346.712 144.807 345.509 144.807C344.244 144.807 343.451 145.818 343.451 147.397V147.404C343.451 149.018 344.244 150.016 345.509 150.016ZM355.681 151V142.441H355.653L353.042 144.26V143.022L355.667 141.136H356.87V151H355.681ZM359.406 151V141.136H360.596V151H359.406ZM364.28 151.137C362.865 151.137 361.915 150.282 361.915 148.99V148.977C361.915 147.767 362.858 147.008 364.492 146.912L366.529 146.796V146.201C366.529 145.333 365.962 144.807 364.971 144.807C364.055 144.807 363.48 145.244 363.344 145.88L363.33 145.941H362.182L362.188 145.866C362.291 144.697 363.31 143.754 364.984 143.754C366.666 143.754 367.719 144.663 367.719 146.085V151H366.529V149.845H366.502C366.085 150.624 365.23 151.137 364.28 151.137ZM363.132 148.99C363.132 149.674 363.692 150.104 364.547 150.104C365.668 150.104 366.529 149.332 366.529 148.3V147.719L364.629 147.835C363.679 147.89 363.132 148.313 363.132 148.977V148.99ZM369.229 151V143.891H370.419V144.93H370.446C370.768 144.226 371.479 143.754 372.395 143.754C373.365 143.754 374.083 144.253 374.391 145.121H374.418C374.814 144.267 375.648 143.754 376.646 143.754C378.055 143.754 378.964 144.677 378.964 146.092V151H377.774V146.365C377.774 145.388 377.234 144.807 376.298 144.807C375.354 144.807 374.691 145.511 374.691 146.481V151H373.502V146.235C373.502 145.374 372.928 144.807 372.046 144.807C371.103 144.807 370.419 145.552 370.419 146.543V151H369.229ZM382.56 151.137C381.145 151.137 380.194 150.282 380.194 148.99V148.977C380.194 147.767 381.138 147.008 382.771 146.912L384.809 146.796V146.201C384.809 145.333 384.241 144.807 383.25 144.807C382.334 144.807 381.76 145.244 381.623 145.88L381.609 145.941H380.461L380.468 145.866C380.57 144.697 381.589 143.754 383.264 143.754C384.945 143.754 385.998 144.663 385.998 146.085V151H384.809V149.845H384.781C384.364 150.624 383.51 151.137 382.56 151.137ZM381.411 148.99C381.411 149.674 381.972 150.104 382.826 150.104C383.947 150.104 384.809 149.332 384.809 148.3V147.719L382.908 147.835C381.958 147.89 381.411 148.313 381.411 148.977V148.99ZM388.24 151.096C387.803 151.096 387.461 150.754 387.461 150.316C387.461 149.879 387.803 149.537 388.24 149.537C388.678 149.537 389.02 149.879 389.02 150.316C389.02 150.754 388.678 151.096 388.24 151.096ZM393.053 151.137C391.036 151.137 389.758 149.701 389.758 147.438V147.432C389.758 145.189 391.063 143.754 393.039 143.754C394.81 143.754 395.855 144.93 396.006 146.146L396.013 146.201H394.851L394.837 146.146C394.659 145.436 394.085 144.807 393.039 144.807C391.802 144.807 390.975 145.832 390.975 147.445V147.452C390.975 149.106 391.822 150.084 393.053 150.084C394.023 150.084 394.646 149.537 394.844 148.744L394.857 148.689H396.026L396.02 148.737C395.828 150.091 394.659 151.137 393.053 151.137ZM397.12 153.393V143.891H398.31V145.094H398.337C398.781 144.267 399.574 143.754 400.593 143.754C402.411 143.754 403.614 145.203 403.614 147.445V147.452C403.614 149.694 402.397 151.137 400.613 151.137C399.608 151.137 398.781 150.631 398.337 149.811H398.31V153.393H397.12ZM400.36 150.084C401.618 150.084 402.397 149.072 402.397 147.452V147.445C402.397 145.812 401.618 144.807 400.36 144.807C399.157 144.807 398.303 145.853 398.303 147.445V147.452C398.303 149.038 399.164 150.084 400.36 150.084ZM404.817 153.393V143.891H406.007V145.094H406.034C406.479 144.267 407.271 143.754 408.29 143.754C410.108 143.754 411.312 145.203 411.312 147.445V147.452C411.312 149.694 410.095 151.137 408.311 151.137C407.306 151.137 406.479 150.631 406.034 149.811H406.007V153.393H404.817ZM408.058 150.084C409.315 150.084 410.095 149.072 410.095 147.452V147.445C410.095 145.812 409.315 144.807 408.058 144.807C406.854 144.807 406 145.853 406 147.445V147.452C406 149.038 406.861 150.084 408.058 150.084Z" fill="white"/>
<path d="M297.552 198V188.83H297.523L294.725 190.778V189.453L297.538 187.431H298.827V198H297.552ZM305.228 187.255C307.176 187.255 309.242 188.603 309.242 192.521V192.536C309.242 196.096 307.726 198.176 305.14 198.176C303.346 198.176 302.005 197.15 301.654 195.612L301.632 195.517H302.972L303.001 195.598C303.316 196.469 304.071 197.011 305.155 197.011C307.125 197.011 307.901 195.1 307.96 192.88C307.967 192.807 307.967 192.734 307.967 192.653H307.938C307.513 193.591 306.429 194.353 304.994 194.353C302.979 194.353 301.485 192.866 301.485 190.859V190.844C301.485 188.764 303.067 187.255 305.228 187.255ZM305.221 193.195C306.605 193.195 307.652 192.214 307.652 190.866V190.859C307.652 189.504 306.598 188.427 305.243 188.427C303.895 188.427 302.826 189.482 302.826 190.815V190.83C302.826 192.207 303.829 193.195 305.221 193.195ZM311.52 190.712C311.051 190.712 310.685 190.346 310.685 189.877C310.685 189.409 311.051 189.042 311.52 189.042C311.988 189.042 312.354 189.409 312.354 189.877C312.354 190.346 311.988 190.712 311.52 190.712ZM311.52 196.381C311.051 196.381 310.685 196.015 310.685 195.546C310.685 195.078 311.051 194.711 311.52 194.711C311.988 194.711 312.354 195.078 312.354 195.546C312.354 196.015 311.988 196.381 311.52 196.381ZM317.547 198.176C315.365 198.176 313.951 196.96 313.812 195.29L313.805 195.202H315.072L315.079 195.275C315.189 196.315 316.141 197.033 317.547 197.033C318.932 197.033 319.876 196.257 319.876 195.136V195.122C319.876 193.825 318.946 193.1 317.467 193.1H316.141V191.987H317.408C318.668 191.987 319.547 191.21 319.547 190.156V190.141C319.547 189.035 318.822 188.398 317.533 188.398C316.288 188.398 315.401 189.057 315.292 190.126L315.284 190.2H314.017L314.024 190.126C314.193 188.405 315.555 187.255 317.533 187.255C319.547 187.255 320.873 188.376 320.873 189.98V189.995C320.873 191.298 319.95 192.192 318.631 192.47V192.5C320.169 192.631 321.217 193.591 321.217 195.092V195.107C321.217 196.872 319.664 198.176 317.547 198.176ZM326.505 198.176C324.264 198.176 322.667 196.916 322.667 195.144V195.129C322.667 193.825 323.583 192.741 324.938 192.426V192.397C323.78 192.038 323.048 191.159 323.048 190.046V190.031C323.048 188.435 324.505 187.255 326.505 187.255C328.504 187.255 329.962 188.435 329.962 190.031V190.046C329.962 191.159 329.229 192.038 328.072 192.397V192.426C329.427 192.741 330.343 193.825 330.343 195.129V195.144C330.343 196.916 328.746 198.176 326.505 198.176ZM326.505 191.906C327.779 191.906 328.651 191.181 328.651 190.156V190.141C328.651 189.116 327.779 188.391 326.505 188.391C325.23 188.391 324.359 189.116 324.359 190.141V190.156C324.359 191.181 325.23 191.906 326.505 191.906ZM326.505 197.026C327.962 197.026 329.002 196.206 329.002 195.063V195.048C329.002 193.891 327.97 193.063 326.505 193.063C325.04 193.063 324.007 193.891 324.007 195.048V195.063C324.007 196.206 325.047 197.026 326.505 197.026ZM332.613 190.712C332.145 190.712 331.778 190.346 331.778 189.877C331.778 189.409 332.145 189.042 332.613 189.042C333.082 189.042 333.448 189.409 333.448 189.877C333.448 190.346 333.082 190.712 332.613 190.712ZM332.613 196.381C332.145 196.381 331.778 196.015 331.778 195.546C331.778 195.078 332.145 194.711 332.613 194.711C333.082 194.711 333.448 195.078 333.448 195.546C333.448 196.015 333.082 196.381 332.613 196.381ZM338.766 198.176C336.334 198.176 334.891 196.074 334.891 192.719V192.705C334.891 189.35 336.334 187.255 338.766 187.255C341.197 187.255 342.655 189.35 342.655 192.705V192.719C342.655 196.074 341.197 198.176 338.766 198.176ZM338.766 197.026C340.377 197.026 341.329 195.371 341.329 192.719V192.705C341.329 190.053 340.377 188.413 338.766 188.413C337.154 188.413 336.217 190.053 336.217 192.705V192.719C336.217 195.371 337.154 197.026 338.766 197.026ZM346.727 198V188.83H346.698L343.9 190.778V189.453L346.712 187.431H348.001V198H346.727Z" fill="white" fill-opacity="0.4"/>
<path d="M299.259 221.176C296.607 221.176 294.974 219.601 294.974 217.287V210.431H296.615V217.155C296.615 218.693 297.574 219.726 299.259 219.726C300.943 219.726 301.896 218.693 301.896 217.155V210.431H303.529V217.287C303.529 219.601 301.917 221.176 299.259 221.176ZM308.026 221.154C306.1 221.154 304.972 220.202 304.811 218.795L304.803 218.729H306.371L306.385 218.803C306.532 219.513 307.059 219.931 308.033 219.931C308.985 219.931 309.557 219.535 309.557 218.913V218.905C309.557 218.407 309.278 218.122 308.451 217.924L307.191 217.638C305.726 217.301 305.001 216.598 305.001 215.478V215.47C305.001 214.093 306.202 213.148 307.975 213.148C309.798 213.148 310.897 214.167 310.978 215.478L310.985 215.565H309.498L309.491 215.514C309.396 214.84 308.868 214.372 307.975 214.372C307.125 214.372 306.59 214.774 306.59 215.39V215.397C306.59 215.873 306.905 216.195 307.733 216.393L308.985 216.679C310.56 217.045 311.161 217.667 311.161 218.773V218.781C311.161 220.187 309.842 221.154 308.026 221.154ZM315.68 221.154C313.417 221.154 312.047 219.608 312.047 217.177V217.169C312.047 214.76 313.438 213.148 315.599 213.148C317.76 213.148 319.085 214.701 319.085 217.016V217.55H313.629C313.658 219.008 314.457 219.857 315.716 219.857C316.654 219.857 317.276 219.374 317.474 218.795L317.496 218.737H318.998L318.983 218.817C318.734 220.041 317.547 221.154 315.68 221.154ZM315.606 214.445C314.581 214.445 313.79 215.141 313.651 216.43H317.518C317.386 215.097 316.639 214.445 315.606 214.445ZM320.316 221V213.295H321.898V214.613H321.935C322.184 213.712 322.828 213.148 323.707 213.148C323.934 213.148 324.132 213.185 324.256 213.207V214.679C324.132 214.628 323.854 214.591 323.546 214.591C322.528 214.591 321.898 215.258 321.898 216.408V221H320.316ZM326.139 215.609C325.597 215.609 325.172 215.185 325.172 214.643C325.172 214.108 325.597 213.683 326.139 213.683C326.673 213.683 327.098 214.108 327.098 214.643C327.098 215.185 326.673 215.609 326.139 215.609ZM326.139 221.11C325.597 221.11 325.172 220.685 325.172 220.15C325.172 219.608 325.597 219.191 326.139 219.191C326.673 219.191 327.098 219.608 327.098 220.15C327.098 220.685 326.673 221.11 326.139 221.11ZM334.042 221L331.192 210.431H332.899L334.869 218.715H334.898L337.132 210.431H338.685L340.919 218.715H340.956L342.926 210.431H344.632L341.776 221H340.201L337.931 213.031H337.894L335.616 221H334.042ZM345.804 221V210.431H347.386V214.562H347.423C347.833 213.668 348.661 213.148 349.811 213.148C351.458 213.148 352.542 214.379 352.542 216.239V221H350.96V216.54C350.96 215.265 350.316 214.503 349.203 214.503C348.111 214.503 347.386 215.338 347.386 216.54V221H345.804ZM356.344 221.139C354.806 221.139 353.773 220.194 353.773 218.81V218.795C353.773 217.455 354.813 216.635 356.637 216.525L358.731 216.4V215.822C358.731 214.972 358.182 214.459 357.201 214.459C356.285 214.459 355.721 214.892 355.589 215.507L355.575 215.573H354.081L354.088 215.492C354.198 214.167 355.348 213.148 357.245 213.148C359.127 213.148 360.321 214.145 360.321 215.69V221H358.731V219.784H358.702C358.255 220.612 357.362 221.139 356.344 221.139ZM355.37 218.773C355.37 219.447 355.926 219.872 356.776 219.872C357.889 219.872 358.731 219.118 358.731 218.114V217.514L356.849 217.631C355.897 217.689 355.37 218.107 355.37 218.759V218.773ZM364.562 221.154C363.038 221.154 362.306 220.509 362.306 218.971V214.555H361.2V213.295H362.306V211.288H363.924V213.295H365.367V214.555H363.924V218.876C363.924 219.66 364.276 219.894 364.942 219.894C365.111 219.894 365.25 219.879 365.367 219.865V221.088C365.184 221.117 364.884 221.154 364.562 221.154ZM367.279 214.298L367.11 210.431H368.575L368.407 214.298H367.279ZM373.46 221.154C371.534 221.154 370.406 220.202 370.245 218.795L370.238 218.729H371.805L371.82 218.803C371.966 219.513 372.494 219.931 373.468 219.931C374.42 219.931 374.991 219.535 374.991 218.913V218.905C374.991 218.407 374.713 218.122 373.885 217.924L372.625 217.638C371.161 217.301 370.436 216.598 370.436 215.478V215.47C370.436 214.093 371.637 213.148 373.409 213.148C375.233 213.148 376.332 214.167 376.412 215.478L376.419 215.565H374.933L374.925 215.514C374.83 214.84 374.303 214.372 373.409 214.372C372.56 214.372 372.025 214.774 372.025 215.39V215.397C372.025 215.873 372.34 216.195 373.167 216.393L374.42 216.679C375.995 217.045 376.595 217.667 376.595 218.773V218.781C376.595 220.187 375.277 221.154 373.46 221.154ZM383.575 221.154C382.052 221.154 381.319 220.509 381.319 218.971V214.555H380.213V213.295H381.319V211.288H382.938V213.295H384.381V214.555H382.938V218.876C382.938 219.66 383.29 219.894 383.956 219.894C384.125 219.894 384.264 219.879 384.381 219.865V221.088C384.198 221.117 383.897 221.154 383.575 221.154ZM385.75 221V210.431H387.333V214.562H387.369C387.779 213.668 388.607 213.148 389.757 213.148C391.405 213.148 392.489 214.379 392.489 216.239V221H390.907V216.54C390.907 215.265 390.262 214.503 389.149 214.503C388.058 214.503 387.333 215.338 387.333 216.54V221H385.75ZM397.315 221.154C395.052 221.154 393.683 219.608 393.683 217.177V217.169C393.683 214.76 395.074 213.148 397.235 213.148C399.396 213.148 400.721 214.701 400.721 217.016V217.55H395.265C395.294 219.008 396.092 219.857 397.352 219.857C398.29 219.857 398.912 219.374 399.11 218.795L399.132 218.737H400.633L400.619 218.817C400.37 220.041 399.183 221.154 397.315 221.154ZM397.242 214.445C396.217 214.445 395.426 215.141 395.287 216.43H399.154C399.022 215.097 398.275 214.445 397.242 214.445ZM408.309 221.154C406.061 221.154 404.654 219.608 404.654 217.14V217.133C404.654 214.694 406.09 213.148 408.287 213.148C410.272 213.148 411.473 214.423 411.605 215.873L411.612 215.924H410.104L410.089 215.866C409.92 215.111 409.334 214.474 408.302 214.474C407.071 214.474 406.273 215.5 406.273 217.147V217.155C406.273 218.839 407.086 219.828 408.309 219.828C409.283 219.828 409.906 219.264 410.096 218.429L410.104 218.371H411.627L411.62 218.422C411.451 219.967 410.162 221.154 408.309 221.154ZM415.011 221.139C413.473 221.139 412.44 220.194 412.44 218.81V218.795C412.44 217.455 413.48 216.635 415.304 216.525L417.398 216.4V215.822C417.398 214.972 416.849 214.459 415.868 214.459C414.952 214.459 414.388 214.892 414.256 215.507L414.242 215.573H412.748L412.755 215.492C412.865 214.167 414.015 213.148 415.912 213.148C417.794 213.148 418.988 214.145 418.988 215.69V221H417.398V219.784H417.369C416.922 220.612 416.029 221.139 415.011 221.139ZM414.037 218.773C414.037 219.447 414.593 219.872 415.443 219.872C416.556 219.872 417.398 219.118 417.398 218.114V217.514L415.516 217.631C414.564 217.689 414.037 218.107 414.037 218.759V218.773ZM420.526 223.563V213.295H422.108V214.621H422.145C422.606 213.705 423.456 213.148 424.554 213.148C426.517 213.148 427.777 214.687 427.777 217.147V217.155C427.777 219.608 426.51 221.154 424.576 221.154C423.485 221.154 422.599 220.597 422.145 219.704H422.108V223.563H420.526ZM424.144 219.792C425.389 219.792 426.166 218.781 426.166 217.155V217.147C426.166 215.507 425.382 214.503 424.144 214.503C422.943 214.503 422.101 215.543 422.101 217.147V217.155C422.101 218.751 422.95 219.792 424.144 219.792ZM429.864 212.108C429.352 212.108 428.941 211.698 428.941 211.2C428.941 210.695 429.352 210.285 429.864 210.285C430.384 210.285 430.787 210.695 430.787 211.2C430.787 211.698 430.384 212.108 429.864 212.108ZM429.073 221V213.295H430.655V221H429.073ZM434.991 221.154C433.468 221.154 432.735 220.509 432.735 218.971V214.555H431.629V213.295H432.735V211.288H434.354V213.295H435.797V214.555H434.354V218.876C434.354 219.66 434.706 219.894 435.372 219.894C435.541 219.894 435.68 219.879 435.797 219.865V221.088C435.614 221.117 435.313 221.154 434.991 221.154ZM439.254 221.139C437.716 221.139 436.683 220.194 436.683 218.81V218.795C436.683 217.455 437.723 216.635 439.547 216.525L441.642 216.4V215.822C441.642 214.972 441.092 214.459 440.111 214.459C439.195 214.459 438.631 214.892 438.5 215.507L438.485 215.573H436.991L436.998 215.492C437.108 214.167 438.258 213.148 440.155 213.148C442.037 213.148 443.231 214.145 443.231 215.69V221H441.642V219.784H441.612C441.166 220.612 440.272 221.139 439.254 221.139ZM438.28 218.773C438.28 219.447 438.836 219.872 439.686 219.872C440.799 219.872 441.642 219.118 441.642 218.114V217.514L439.759 217.631C438.807 217.689 438.28 218.107 438.28 218.759V218.773ZM444.828 221V210.431H446.41V221H444.828ZM454.393 221.154C452.181 221.154 450.738 219.623 450.738 217.147V217.133C450.738 214.672 452.196 213.148 454.386 213.148C456.583 213.148 458.048 214.665 458.048 217.133V217.147C458.048 219.63 456.598 221.154 454.393 221.154ZM454.4 219.828C455.638 219.828 456.429 218.847 456.429 217.147V217.133C456.429 215.448 455.624 214.474 454.386 214.474C453.17 214.474 452.357 215.448 452.357 217.133V217.147C452.357 218.854 453.163 219.828 454.4 219.828ZM459.732 221V214.555H458.67V213.295H459.732V212.475C459.732 210.98 460.436 210.277 462.003 210.277C462.325 210.277 462.677 210.307 462.889 210.343V211.515C462.735 211.493 462.538 211.479 462.34 211.479C461.629 211.479 461.292 211.823 461.292 212.504V213.295H462.86V214.555H461.322V221H459.732ZM471.861 221.176C468.866 221.176 466.961 219.066 466.961 215.712V215.705C466.961 212.35 468.866 210.255 471.861 210.255C474.19 210.255 475.941 211.691 476.271 213.778L476.285 213.844H474.659L474.615 213.698C474.264 212.46 473.282 211.706 471.861 211.706C469.898 211.706 468.639 213.258 468.639 215.705V215.712C468.639 218.158 469.906 219.726 471.861 219.726C473.268 219.726 474.242 218.993 474.637 217.653L474.659 217.587H476.285L476.278 217.66C475.948 219.762 474.198 221.176 471.861 221.176ZM479.83 221.139C478.292 221.139 477.259 220.194 477.259 218.81V218.795C477.259 217.455 478.299 216.635 480.123 216.525L482.218 216.4V215.822C482.218 214.972 481.668 214.459 480.687 214.459C479.771 214.459 479.208 214.892 479.076 215.507L479.061 215.573H477.567L477.574 215.492C477.684 214.167 478.834 213.148 480.731 213.148C482.613 213.148 483.807 214.145 483.807 215.69V221H482.218V219.784H482.188C481.742 220.612 480.848 221.139 479.83 221.139ZM478.856 218.773C478.856 219.447 479.413 219.872 480.262 219.872C481.375 219.872 482.218 219.118 482.218 218.114V217.514L480.335 217.631C479.383 217.689 478.856 218.107 478.856 218.759V218.773ZM485.345 221V213.295H486.927V214.459H486.964C487.367 213.676 488.158 213.148 489.322 213.148C491.014 213.148 491.988 214.24 491.988 216.012V221H490.399V216.312C490.399 215.155 489.857 214.503 488.758 214.503C487.645 214.503 486.927 215.309 486.927 216.51V221H485.345ZM495.782 221.139C494.244 221.139 493.211 220.194 493.211 218.81V218.795C493.211 217.455 494.251 216.635 496.075 216.525L498.17 216.4V215.822C498.17 214.972 497.621 214.459 496.639 214.459C495.724 214.459 495.16 214.892 495.028 215.507L495.013 215.573H493.519L493.526 215.492C493.636 214.167 494.786 213.148 496.683 213.148C498.565 213.148 499.759 214.145 499.759 215.69V221H498.17V219.784H498.141C497.694 220.612 496.8 221.139 495.782 221.139ZM494.808 218.773C494.808 219.447 495.365 219.872 496.214 219.872C497.328 219.872 498.17 219.118 498.17 218.114V217.514L496.288 217.631C495.335 217.689 494.808 218.107 494.808 218.759V218.773ZM504.176 221.154C502.213 221.154 500.953 219.601 500.953 217.147V217.14C500.953 214.687 502.228 213.148 504.161 213.148C505.252 213.148 506.131 213.698 506.593 214.606H506.622V210.431H508.211V221H506.622V219.696H506.593C506.131 220.597 505.282 221.154 504.176 221.154ZM504.593 219.792C505.787 219.792 506.629 218.751 506.629 217.147V217.14C506.629 215.543 505.78 214.503 504.593 214.503C503.348 214.503 502.572 215.514 502.572 217.14V217.147C502.572 218.788 503.341 219.792 504.593 219.792ZM512.101 221.139C510.562 221.139 509.53 220.194 509.53 218.81V218.795C509.53 217.455 510.57 216.635 512.394 216.525L514.488 216.4V215.822C514.488 214.972 513.939 214.459 512.958 214.459C512.042 214.459 511.478 214.892 511.346 215.507L511.332 215.573H509.837L509.845 215.492C509.955 214.167 511.104 213.148 513.001 213.148C514.884 213.148 516.078 214.145 516.078 215.69V221H514.488V219.784H514.459C514.012 220.612 513.119 221.139 512.101 221.139ZM511.126 218.773C511.126 219.447 511.683 219.872 512.533 219.872C513.646 219.872 514.488 219.118 514.488 218.114V217.514L512.606 217.631C511.654 217.689 511.126 218.107 511.126 218.759V218.773ZM519.527 217.682L519.52 217.096C519.498 216.1 519.93 215.441 520.934 214.84C521.82 214.306 522.135 213.881 522.135 213.134V213.126C522.135 212.292 521.476 211.691 520.479 211.691C519.469 211.691 518.839 212.306 518.758 213.2L518.751 213.266H517.235L517.242 213.178C517.337 211.603 518.436 210.343 520.56 210.343C522.486 210.343 523.797 211.486 523.797 213.061V213.068C523.797 214.196 523.226 214.994 522.259 215.573C521.314 216.129 521.043 216.525 521.043 217.265V217.682H519.527ZM520.296 221.081C519.762 221.081 519.337 220.663 519.337 220.128C519.337 219.594 519.762 219.184 520.296 219.184C520.846 219.184 521.263 219.594 521.263 220.128C521.263 220.663 520.846 221.081 520.296 221.081Z" fill="white"/>
<path d="M294 236H565" stroke="white" stroke-opacity="0.1" stroke-dasharray="3 3"/>
<path d="M297.552 287V277.83H297.523L294.725 279.778V278.453L297.538 276.431H298.827V287H297.552ZM305.228 276.255C307.176 276.255 309.242 277.603 309.242 281.521V281.536C309.242 285.096 307.726 287.176 305.14 287.176C303.346 287.176 302.005 286.15 301.654 284.612L301.632 284.517H302.972L303.001 284.598C303.316 285.469 304.071 286.011 305.155 286.011C307.125 286.011 307.901 284.1 307.96 281.88C307.967 281.807 307.967 281.734 307.967 281.653H307.938C307.513 282.591 306.429 283.353 304.994 283.353C302.979 283.353 301.485 281.866 301.485 279.859V279.844C301.485 277.764 303.067 276.255 305.228 276.255ZM305.221 282.195C306.605 282.195 307.652 281.214 307.652 279.866V279.859C307.652 278.504 306.598 277.427 305.243 277.427C303.895 277.427 302.826 278.482 302.826 279.815V279.83C302.826 281.207 303.829 282.195 305.221 282.195ZM311.52 279.712C311.051 279.712 310.685 279.346 310.685 278.877C310.685 278.409 311.051 278.042 311.52 278.042C311.988 278.042 312.354 278.409 312.354 278.877C312.354 279.346 311.988 279.712 311.52 279.712ZM311.52 285.381C311.051 285.381 310.685 285.015 310.685 284.546C310.685 284.078 311.051 283.711 311.52 283.711C311.988 283.711 312.354 284.078 312.354 284.546C312.354 285.015 311.988 285.381 311.52 285.381ZM317.547 287.176C315.365 287.176 313.951 285.96 313.812 284.29L313.805 284.202H315.072L315.079 284.275C315.189 285.315 316.141 286.033 317.547 286.033C318.932 286.033 319.876 285.257 319.876 284.136V284.122C319.876 282.825 318.946 282.1 317.467 282.1H316.141V280.987H317.408C318.668 280.987 319.547 280.21 319.547 279.156V279.141C319.547 278.035 318.822 277.398 317.533 277.398C316.288 277.398 315.401 278.057 315.292 279.126L315.284 279.2H314.017L314.024 279.126C314.193 277.405 315.555 276.255 317.533 276.255C319.547 276.255 320.873 277.376 320.873 278.98V278.995C320.873 280.298 319.95 281.192 318.631 281.47V281.5C320.169 281.631 321.217 282.591 321.217 284.092V284.107C321.217 285.872 319.664 287.176 317.547 287.176ZM326.505 287.176C324.264 287.176 322.667 285.916 322.667 284.144V284.129C322.667 282.825 323.583 281.741 324.938 281.426V281.397C323.78 281.038 323.048 280.159 323.048 279.046V279.031C323.048 277.435 324.505 276.255 326.505 276.255C328.504 276.255 329.962 277.435 329.962 279.031V279.046C329.962 280.159 329.229 281.038 328.072 281.397V281.426C329.427 281.741 330.343 282.825 330.343 284.129V284.144C330.343 285.916 328.746 287.176 326.505 287.176ZM326.505 280.906C327.779 280.906 328.651 280.181 328.651 279.156V279.141C328.651 278.116 327.779 277.391 326.505 277.391C325.23 277.391 324.359 278.116 324.359 279.141V279.156C324.359 280.181 325.23 280.906 326.505 280.906ZM326.505 286.026C327.962 286.026 329.002 285.206 329.002 284.063V284.048C329.002 282.891 327.97 282.063 326.505 282.063C325.04 282.063 324.007 282.891 324.007 284.048V284.063C324.007 285.206 325.047 286.026 326.505 286.026ZM332.613 279.712C332.145 279.712 331.778 279.346 331.778 278.877C331.778 278.409 332.145 278.042 332.613 278.042C333.082 278.042 333.448 278.409 333.448 278.877C333.448 279.346 333.082 279.712 332.613 279.712ZM332.613 285.381C332.145 285.381 331.778 285.015 331.778 284.546C331.778 284.078 332.145 283.711 332.613 283.711C333.082 283.711 333.448 284.078 333.448 284.546C333.448 285.015 333.082 285.381 332.613 285.381ZM338.766 287.176C336.334 287.176 334.891 285.074 334.891 281.719V281.705C334.891 278.35 336.334 276.255 338.766 276.255C341.197 276.255 342.655 278.35 342.655 281.705V281.719C342.655 285.074 341.197 287.176 338.766 287.176ZM338.766 286.026C340.377 286.026 341.329 284.371 341.329 281.719V281.705C341.329 279.053 340.377 277.413 338.766 277.413C337.154 277.413 336.217 279.053 336.217 281.705V281.719C336.217 284.371 337.154 286.026 338.766 286.026ZM344.032 287V286.092L347.752 282.21C349.181 280.723 349.51 280.152 349.51 279.273V279.258C349.503 278.182 348.69 277.405 347.54 277.405C346.222 277.405 345.24 278.313 345.24 279.449V279.485H343.966V279.441C343.966 277.61 345.548 276.255 347.518 276.255C349.43 276.255 350.829 277.537 350.829 279.192V279.207C350.829 280.364 350.294 281.236 348.353 283.221L345.841 285.799V285.828H351.004V287H344.032Z" fill="white" fill-opacity="0.4"/>
<path d="M299.259 310.176C296.607 310.176 294.974 308.601 294.974 306.287V299.431H296.615V306.155C296.615 307.693 297.574 308.726 299.259 308.726C300.943 308.726 301.896 307.693 301.896 306.155V299.431H303.529V306.287C303.529 308.601 301.917 310.176 299.259 310.176ZM308.026 310.154C306.1 310.154 304.972 309.202 304.811 307.795L304.803 307.729H306.371L306.385 307.803C306.532 308.513 307.059 308.931 308.033 308.931C308.985 308.931 309.557 308.535 309.557 307.913V307.905C309.557 307.407 309.278 307.122 308.451 306.924L307.191 306.638C305.726 306.301 305.001 305.598 305.001 304.478V304.47C305.001 303.093 306.202 302.148 307.975 302.148C309.798 302.148 310.897 303.167 310.978 304.478L310.985 304.565H309.498L309.491 304.514C309.396 303.84 308.868 303.372 307.975 303.372C307.125 303.372 306.59 303.774 306.59 304.39V304.397C306.59 304.873 306.905 305.195 307.733 305.393L308.985 305.679C310.56 306.045 311.161 306.667 311.161 307.773V307.781C311.161 309.187 309.842 310.154 308.026 310.154ZM315.68 310.154C313.417 310.154 312.047 308.608 312.047 306.177V306.169C312.047 303.76 313.438 302.148 315.599 302.148C317.76 302.148 319.085 303.701 319.085 306.016V306.55H313.629C313.658 308.008 314.457 308.857 315.716 308.857C316.654 308.857 317.276 308.374 317.474 307.795L317.496 307.737H318.998L318.983 307.817C318.734 309.041 317.547 310.154 315.68 310.154ZM315.606 303.445C314.581 303.445 313.79 304.141 313.651 305.43H317.518C317.386 304.097 316.639 303.445 315.606 303.445ZM320.316 310V302.295H321.898V303.613H321.935C322.184 302.712 322.828 302.148 323.707 302.148C323.934 302.148 324.132 302.185 324.256 302.207V303.679C324.132 303.628 323.854 303.591 323.546 303.591C322.528 303.591 321.898 304.258 321.898 305.408V310H320.316ZM326.139 304.609C325.597 304.609 325.172 304.185 325.172 303.643C325.172 303.108 325.597 302.683 326.139 302.683C326.673 302.683 327.098 303.108 327.098 303.643C327.098 304.185 326.673 304.609 326.139 304.609ZM326.139 310.11C325.597 310.11 325.172 309.685 325.172 309.15C325.172 308.608 325.597 308.191 326.139 308.191C326.673 308.191 327.098 308.608 327.098 309.15C327.098 309.685 326.673 310.11 326.139 310.11ZM334.466 310V300.845H331.229V299.431H339.337V300.845H336.107V310H334.466ZM340.545 310V299.431H342.127V303.562H342.164C342.574 302.668 343.402 302.148 344.552 302.148C346.2 302.148 347.284 303.379 347.284 305.239V310H345.702V305.54C345.702 304.265 345.057 303.503 343.944 303.503C342.853 303.503 342.127 304.338 342.127 305.54V310H340.545ZM352.11 310.154C349.847 310.154 348.478 308.608 348.478 306.177V306.169C348.478 303.76 349.869 302.148 352.03 302.148C354.19 302.148 355.516 303.701 355.516 306.016V306.55H350.06C350.089 308.008 350.887 308.857 352.147 308.857C353.084 308.857 353.707 308.374 353.905 307.795L353.927 307.737H355.428L355.414 307.817C355.165 309.041 353.978 310.154 352.11 310.154ZM352.037 303.445C351.012 303.445 350.221 304.141 350.082 305.43H353.949C353.817 304.097 353.07 303.445 352.037 303.445ZM363.104 310.154C360.855 310.154 359.449 308.608 359.449 306.14V306.133C359.449 303.694 360.885 302.148 363.082 302.148C365.067 302.148 366.268 303.423 366.4 304.873L366.407 304.924H364.898L364.884 304.866C364.715 304.111 364.129 303.474 363.097 303.474C361.866 303.474 361.068 304.5 361.068 306.147V306.155C361.068 307.839 361.881 308.828 363.104 308.828C364.078 308.828 364.701 308.264 364.891 307.429L364.898 307.371H366.422L366.415 307.422C366.246 308.967 364.957 310.154 363.104 310.154ZM369.806 310.139C368.268 310.139 367.235 309.194 367.235 307.81V307.795C367.235 306.455 368.275 305.635 370.099 305.525L372.193 305.4V304.822C372.193 303.972 371.644 303.459 370.663 303.459C369.747 303.459 369.183 303.892 369.051 304.507L369.037 304.573H367.542L367.55 304.492C367.66 303.167 368.81 302.148 370.707 302.148C372.589 302.148 373.783 303.145 373.783 304.69V310H372.193V308.784H372.164C371.717 309.612 370.824 310.139 369.806 310.139ZM368.832 307.773C368.832 308.447 369.388 308.872 370.238 308.872C371.351 308.872 372.193 308.118 372.193 307.114V306.514L370.311 306.631C369.359 306.689 368.832 307.107 368.832 307.759V307.773ZM375.321 312.563V302.295H376.903V303.621H376.939C377.401 302.705 378.25 302.148 379.349 302.148C381.312 302.148 382.572 303.687 382.572 306.147V306.155C382.572 308.608 381.305 310.154 379.371 310.154C378.28 310.154 377.394 309.597 376.939 308.704H376.903V312.563H375.321ZM378.939 308.792C380.184 308.792 380.96 307.781 380.96 306.155V306.147C380.96 304.507 380.177 303.503 378.939 303.503C377.738 303.503 376.896 304.543 376.896 306.147V306.155C376.896 307.751 377.745 308.792 378.939 308.792ZM384.659 301.108C384.146 301.108 383.736 300.698 383.736 300.2C383.736 299.695 384.146 299.285 384.659 299.285C385.179 299.285 385.582 299.695 385.582 300.2C385.582 300.698 385.179 301.108 384.659 301.108ZM383.868 310V302.295H385.45V310H383.868ZM389.786 310.154C388.263 310.154 387.53 309.509 387.53 307.971V303.555H386.424V302.295H387.53V300.288H389.149V302.295H390.592V303.555H389.149V307.876C389.149 308.66 389.5 308.894 390.167 308.894C390.335 308.894 390.475 308.879 390.592 308.865V310.088C390.409 310.117 390.108 310.154 389.786 310.154ZM394.049 310.139C392.511 310.139 391.478 309.194 391.478 307.81V307.795C391.478 306.455 392.518 305.635 394.342 305.525L396.437 305.4V304.822C396.437 303.972 395.887 303.459 394.906 303.459C393.99 303.459 393.426 303.892 393.294 304.507L393.28 304.573H391.786L391.793 304.492C391.903 303.167 393.053 302.148 394.95 302.148C396.832 302.148 398.026 303.145 398.026 304.69V310H396.437V308.784H396.407C395.96 309.612 395.067 310.139 394.049 310.139ZM393.075 307.773C393.075 308.447 393.631 308.872 394.481 308.872C395.594 308.872 396.437 308.118 396.437 307.114V306.514L394.554 306.631C393.602 306.689 393.075 307.107 393.075 307.759V307.773ZM399.623 310V299.431H401.205V310H399.623ZM409.188 310.154C406.976 310.154 405.533 308.623 405.533 306.147V306.133C405.533 303.672 406.991 302.148 409.181 302.148C411.378 302.148 412.843 303.665 412.843 306.133V306.147C412.843 308.63 411.393 310.154 409.188 310.154ZM409.195 308.828C410.433 308.828 411.224 307.847 411.224 306.147V306.133C411.224 304.448 410.418 303.474 409.181 303.474C407.965 303.474 407.152 304.448 407.152 306.133V306.147C407.152 307.854 407.958 308.828 409.195 308.828ZM414.527 310V303.555H413.465V302.295H414.527V301.475C414.527 299.98 415.23 299.277 416.798 299.277C417.12 299.277 417.472 299.307 417.684 299.343V300.515C417.53 300.493 417.333 300.479 417.135 300.479C416.424 300.479 416.087 300.823 416.087 301.504V302.295H417.655V303.555H416.117V310H414.527ZM426.656 310.176C423.661 310.176 421.756 308.066 421.756 304.712V304.705C421.756 301.35 423.661 299.255 426.656 299.255C428.985 299.255 430.736 300.691 431.065 302.778L431.08 302.844H429.454L429.41 302.698C429.059 301.46 428.077 300.706 426.656 300.706C424.693 300.706 423.434 302.258 423.434 304.705V304.712C423.434 307.158 424.701 308.726 426.656 308.726C428.062 308.726 429.037 307.993 429.432 306.653L429.454 306.587H431.08L431.073 306.66C430.743 308.762 428.993 310.176 426.656 310.176ZM434.625 310.139C433.087 310.139 432.054 309.194 432.054 307.81V307.795C432.054 306.455 433.094 305.635 434.918 305.525L437.013 305.4V304.822C437.013 303.972 436.463 303.459 435.482 303.459C434.566 303.459 434.002 303.892 433.871 304.507L433.856 304.573H432.362L432.369 304.492C432.479 303.167 433.629 302.148 435.526 302.148C437.408 302.148 438.602 303.145 438.602 304.69V310H437.013V308.784H436.983C436.537 309.612 435.643 310.139 434.625 310.139ZM433.651 307.773C433.651 308.447 434.208 308.872 435.057 308.872C436.17 308.872 437.013 308.118 437.013 307.114V306.514L435.13 306.631C434.178 306.689 433.651 307.107 433.651 307.759V307.773ZM440.14 310V302.295H441.722V303.459H441.759C442.162 302.676 442.953 302.148 444.117 302.148C445.809 302.148 446.783 303.24 446.783 305.012V310H445.194V305.312C445.194 304.155 444.652 303.503 443.553 303.503C442.44 303.503 441.722 304.309 441.722 305.51V310H440.14ZM450.577 310.139C449.039 310.139 448.006 309.194 448.006 307.81V307.795C448.006 306.455 449.046 305.635 450.87 305.525L452.965 305.4V304.822C452.965 303.972 452.416 303.459 451.434 303.459C450.519 303.459 449.955 303.892 449.823 304.507L449.808 304.573H448.314L448.321 304.492C448.431 303.167 449.581 302.148 451.478 302.148C453.36 302.148 454.554 303.145 454.554 304.69V310H452.965V308.784H452.936C452.489 309.612 451.595 310.139 450.577 310.139ZM449.603 307.773C449.603 308.447 450.16 308.872 451.009 308.872C452.123 308.872 452.965 308.118 452.965 307.114V306.514L451.083 306.631C450.13 306.689 449.603 307.107 449.603 307.759V307.773ZM458.971 310.154C457.008 310.154 455.748 308.601 455.748 306.147V306.14C455.748 303.687 457.022 302.148 458.956 302.148C460.047 302.148 460.926 302.698 461.388 303.606H461.417V299.431H463.006V310H461.417V308.696H461.388C460.926 309.597 460.077 310.154 458.971 310.154ZM459.388 308.792C460.582 308.792 461.424 307.751 461.424 306.147V306.14C461.424 304.543 460.575 303.503 459.388 303.503C458.143 303.503 457.367 304.514 457.367 306.14V306.147C457.367 307.788 458.136 308.792 459.388 308.792ZM466.896 310.139C465.357 310.139 464.325 309.194 464.325 307.81V307.795C464.325 306.455 465.365 305.635 467.188 305.525L469.283 305.4V304.822C469.283 303.972 468.734 303.459 467.752 303.459C466.837 303.459 466.273 303.892 466.141 304.507L466.126 304.573H464.632L464.64 304.492C464.75 303.167 465.899 302.148 467.796 302.148C469.679 302.148 470.873 303.145 470.873 304.69V310H469.283V308.784H469.254C468.807 309.612 467.914 310.139 466.896 310.139ZM465.921 307.773C465.921 308.447 466.478 308.872 467.328 308.872C468.441 308.872 469.283 308.118 469.283 307.114V306.514L467.401 306.631C466.449 306.689 465.921 307.107 465.921 307.759V307.773ZM476.314 301.108C475.802 301.108 475.392 300.698 475.392 300.2C475.392 299.695 475.802 299.285 476.314 299.285C476.834 299.285 477.237 299.695 477.237 300.2C477.237 300.698 476.834 301.108 476.314 301.108ZM475.523 310V302.295H477.105V310H475.523ZM481.625 310.154C479.698 310.154 478.57 309.202 478.409 307.795L478.402 307.729H479.969L479.984 307.803C480.13 308.513 480.658 308.931 481.632 308.931C482.584 308.931 483.155 308.535 483.155 307.913V307.905C483.155 307.407 482.877 307.122 482.049 306.924L480.79 306.638C479.325 306.301 478.6 305.598 478.6 304.478V304.47C478.6 303.093 479.801 302.148 481.573 302.148C483.397 302.148 484.496 303.167 484.576 304.478L484.583 304.565H483.097L483.089 304.514C482.994 303.84 482.467 303.372 481.573 303.372C480.724 303.372 480.189 303.774 480.189 304.39V304.397C480.189 304.873 480.504 305.195 481.332 305.393L482.584 305.679C484.159 306.045 484.759 306.667 484.759 307.773V307.781C484.759 309.187 483.441 310.154 481.625 310.154ZM493.797 310.176C490.75 310.176 488.846 308.081 488.846 304.719V304.705C488.846 301.35 490.758 299.255 493.797 299.255C496.844 299.255 498.749 301.357 498.749 304.705V304.719C498.749 308.074 496.852 310.176 493.797 310.176ZM493.797 308.726C495.826 308.726 497.071 307.158 497.071 304.719V304.705C497.071 302.251 495.804 300.706 493.797 300.706C491.798 300.706 490.516 302.244 490.516 304.705V304.719C490.516 307.18 491.791 308.726 493.797 308.726ZM502.828 310.154C501.305 310.154 500.572 309.509 500.572 307.971V303.555H499.466V302.295H500.572V300.288H502.191V302.295H503.634V303.555H502.191V307.876C502.191 308.66 502.542 308.894 503.209 308.894C503.377 308.894 503.517 308.879 503.634 308.865V310.088C503.451 310.117 503.15 310.154 502.828 310.154ZM507.647 310.154C506.124 310.154 505.392 309.509 505.392 307.971V303.555H504.286V302.295H505.392V300.288H507.01V302.295H508.453V303.555H507.01V307.876C507.01 308.66 507.362 308.894 508.028 308.894C508.197 308.894 508.336 308.879 508.453 308.865V310.088C508.27 310.117 507.97 310.154 507.647 310.154ZM511.91 310.139C510.372 310.139 509.339 309.194 509.339 307.81V307.795C509.339 306.455 510.379 305.635 512.203 305.525L514.298 305.4V304.822C514.298 303.972 513.749 303.459 512.767 303.459C511.852 303.459 511.288 303.892 511.156 304.507L511.141 304.573H509.647L509.654 304.492C509.764 303.167 510.914 302.148 512.811 302.148C514.693 302.148 515.887 303.145 515.887 304.69V310H514.298V308.784H514.269C513.822 309.612 512.928 310.139 511.91 310.139ZM510.936 307.773C510.936 308.447 511.493 308.872 512.342 308.872C513.456 308.872 514.298 308.118 514.298 307.114V306.514L512.416 306.631C511.463 306.689 510.936 307.107 510.936 307.759V307.773ZM518.927 310L516.81 302.295H518.392L519.798 308.359H519.828L521.432 302.295H522.955L524.566 308.359H524.603L526.009 302.295H527.577L525.467 310H523.819L522.201 304.229H522.164L520.56 310H518.927ZM530.616 310.139C529.078 310.139 528.045 309.194 528.045 307.81V307.795C528.045 306.455 529.085 305.635 530.909 305.525L533.004 305.4V304.822C533.004 303.972 532.455 303.459 531.473 303.459C530.558 303.459 529.994 303.892 529.862 304.507L529.847 304.573H528.353L528.36 304.492C528.47 303.167 529.62 302.148 531.517 302.148C533.399 302.148 534.593 303.145 534.593 304.69V310H533.004V308.784H532.975C532.528 309.612 531.634 310.139 530.616 310.139ZM529.642 307.773C529.642 308.447 530.199 308.872 531.048 308.872C532.162 308.872 533.004 308.118 533.004 307.114V306.514L531.122 306.631C530.169 306.689 529.642 307.107 529.642 307.759V307.773ZM537.032 310.11C536.49 310.11 536.065 309.685 536.065 309.15C536.065 308.608 536.49 308.191 537.032 308.191C537.567 308.191 537.992 308.608 537.992 309.15C537.992 309.685 537.567 310.11 537.032 310.11Z" fill="white"/>
<path d="M295.408 334.393V322.136H298.375V323.065H296.557V333.47H298.375V334.393H295.408ZM299.312 332V331.152L302.784 327.529C304.117 326.142 304.425 325.608 304.425 324.788V324.774C304.418 323.77 303.659 323.045 302.586 323.045C301.355 323.045 300.439 323.893 300.439 324.952V324.986H299.25V324.945C299.25 323.236 300.727 321.972 302.565 321.972C304.35 321.972 305.655 323.168 305.655 324.713V324.727C305.655 325.807 305.156 326.62 303.345 328.473L301 330.879V330.906H305.819V332H299.312ZM310.714 321.972C312.532 321.972 314.46 323.229 314.46 326.887V326.9C314.46 330.223 313.045 332.164 310.632 332.164C308.957 332.164 307.706 331.207 307.378 329.771L307.357 329.683H308.608L308.636 329.758C308.93 330.571 309.634 331.077 310.646 331.077C312.484 331.077 313.209 329.293 313.264 327.222C313.271 327.153 313.271 327.085 313.271 327.01H313.243C312.847 327.885 311.835 328.596 310.495 328.596C308.615 328.596 307.221 327.208 307.221 325.335V325.321C307.221 323.38 308.697 321.972 310.714 321.972ZM310.707 327.516C311.999 327.516 312.977 326.6 312.977 325.342V325.335C312.977 324.07 311.992 323.065 310.728 323.065C309.47 323.065 308.472 324.05 308.472 325.294V325.308C308.472 326.593 309.408 327.516 310.707 327.516ZM315.103 333.935L315.704 330.592H316.948L315.95 333.935H315.103ZM318.773 332L323.237 323.257V323.229H317.926V322.136H324.454V323.277L320.065 332H318.773ZM331.017 332.137C329.711 332.137 329.068 331.549 329.068 330.188V325.875H328.029V324.891H329.068V322.97H330.299V324.891H331.652V325.875H330.299V330.182C330.299 330.94 330.634 331.152 331.27 331.152C331.413 331.152 331.55 331.132 331.652 331.125V332.089C331.502 332.109 331.249 332.137 331.017 332.137ZM335.672 332.137C333.696 332.137 332.377 330.708 332.377 328.445V328.432C332.377 326.169 333.703 324.754 335.665 324.754C337.627 324.754 338.96 326.162 338.96 328.432V328.445C338.96 330.715 337.634 332.137 335.672 332.137ZM335.679 331.084C336.93 331.084 337.743 330.113 337.743 328.445V328.432C337.743 326.764 336.923 325.807 335.665 325.807C334.428 325.807 333.594 326.771 333.594 328.432V328.445C333.594 330.12 334.421 331.084 335.679 331.084ZM340.259 332V322.136H341.448V328.028H341.476L344.593 324.891H346.035L342.952 327.96L346.131 332H344.75L342.111 328.685L341.448 329.32V332H340.259ZM350.103 322.136L347.32 334.393H346.186L348.968 322.136H350.103ZM353.391 332.137C351.716 332.137 350.704 331.282 350.561 330.011L350.554 329.949H351.743L351.757 330.018C351.9 330.729 352.427 331.146 353.397 331.146C354.361 331.146 354.936 330.742 354.936 330.1V330.093C354.936 329.58 354.669 329.293 353.862 329.095L352.734 328.821C351.395 328.5 350.745 327.878 350.745 326.853V326.846C350.745 325.622 351.818 324.754 353.356 324.754C354.915 324.754 355.906 325.663 355.995 326.853L356.002 326.941H354.867L354.86 326.894C354.765 326.203 354.238 325.745 353.356 325.745C352.495 325.745 351.962 326.162 351.962 326.791V326.798C351.962 327.283 352.283 327.618 353.069 327.81L354.197 328.083C355.633 328.432 356.152 328.999 356.152 330.011V330.018C356.152 331.262 354.977 332.137 353.391 332.137ZM356.911 333.935L357.513 330.592H358.757L357.759 333.935H356.911ZM365.128 332V323.441H365.101L362.489 325.26V324.022L365.114 322.136H366.317V332H365.128ZM372.388 332.164C370.569 332.164 368.642 330.906 368.642 327.249V327.235C368.642 323.913 370.057 321.972 372.47 321.972C374.145 321.972 375.396 322.929 375.724 324.364L375.744 324.453H374.493L374.466 324.378C374.172 323.564 373.468 323.059 372.456 323.059C370.617 323.059 369.893 324.843 369.838 326.914C369.831 326.982 369.831 327.051 369.831 327.126H369.858C370.255 326.251 371.267 325.54 372.606 325.54C374.486 325.54 375.881 326.928 375.881 328.801V328.814C375.881 330.756 374.404 332.164 372.388 332.164ZM370.125 328.801C370.125 330.065 371.109 331.07 372.374 331.07C373.632 331.07 374.63 330.086 374.63 328.842V328.828C374.63 327.543 373.693 326.62 372.395 326.62C371.103 326.62 370.125 327.536 370.125 328.794V328.801ZM380.782 332.164C378.745 332.164 377.426 331.029 377.296 329.471L377.289 329.389H378.472L378.479 329.457C378.581 330.428 379.47 331.098 380.782 331.098C382.074 331.098 382.956 330.373 382.956 329.327V329.313C382.956 328.104 382.088 327.427 380.707 327.427H379.47V326.388H380.652C381.828 326.388 382.648 325.663 382.648 324.679V324.665C382.648 323.633 381.972 323.038 380.769 323.038C379.606 323.038 378.779 323.653 378.677 324.651L378.67 324.72H377.487L377.494 324.651C377.651 323.045 378.923 321.972 380.769 321.972C382.648 321.972 383.886 323.018 383.886 324.515V324.528C383.886 325.745 383.024 326.579 381.794 326.839V326.866C383.229 326.989 384.207 327.885 384.207 329.286V329.3C384.207 330.947 382.758 332.164 380.782 332.164ZM388.589 332V324.891H389.778V325.93H389.806C390.127 325.226 390.838 324.754 391.754 324.754C392.725 324.754 393.442 325.253 393.75 326.121H393.777C394.174 325.267 395.008 324.754 396.006 324.754C397.414 324.754 398.323 325.677 398.323 327.092V332H397.134V327.365C397.134 326.388 396.594 325.807 395.657 325.807C394.714 325.807 394.051 326.511 394.051 327.481V332H392.861V327.235C392.861 326.374 392.287 325.807 391.405 325.807C390.462 325.807 389.778 326.552 389.778 327.543V332H388.589ZM402.363 332.137C400.688 332.137 399.677 331.282 399.533 330.011L399.526 329.949H400.716L400.729 330.018C400.873 330.729 401.399 331.146 402.37 331.146C403.334 331.146 403.908 330.742 403.908 330.1V330.093C403.908 329.58 403.642 329.293 402.835 329.095L401.707 328.821C400.367 328.5 399.718 327.878 399.718 326.853V326.846C399.718 325.622 400.791 324.754 402.329 324.754C403.888 324.754 404.879 325.663 404.968 326.853L404.975 326.941H403.84L403.833 326.894C403.737 326.203 403.211 325.745 402.329 325.745C401.468 325.745 400.935 326.162 400.935 326.791V326.798C400.935 327.283 401.256 327.618 402.042 327.81L403.17 328.083C404.605 328.432 405.125 328.999 405.125 330.011V330.018C405.125 331.262 403.949 332.137 402.363 332.137ZM405.884 333.935L406.485 330.592H407.729L406.731 333.935H405.884ZM414.101 332V323.441H414.073L411.462 325.26V324.022L414.087 322.136H415.29V332H414.101ZM421.114 332.164C419.077 332.164 417.758 331.029 417.628 329.471L417.621 329.389H418.804L418.811 329.457C418.913 330.428 419.802 331.098 421.114 331.098C422.406 331.098 423.288 330.373 423.288 329.327V329.313C423.288 328.104 422.42 327.427 421.039 327.427H419.802V326.388H420.984C422.16 326.388 422.98 325.663 422.98 324.679V324.665C422.98 323.633 422.304 323.038 421.101 323.038C419.938 323.038 419.111 323.653 419.009 324.651L419.002 324.72H417.819L417.826 324.651C417.983 323.045 419.255 321.972 421.101 321.972C422.98 321.972 424.218 323.018 424.218 324.515V324.528C424.218 325.745 423.356 326.579 422.126 326.839V326.866C423.562 326.989 424.539 327.885 424.539 329.286V329.3C424.539 330.947 423.09 332.164 421.114 332.164ZM430.767 332V329.949H425.811V328.835L430.138 322.136H431.956V328.869H433.351V329.949H431.956V332H430.767ZM427.027 328.869H430.767V323.188H430.726L427.027 328.842V328.869ZM437.938 332.164C435.846 332.164 434.355 330.988 434.355 329.334V329.32C434.355 328.104 435.21 327.092 436.475 326.798V326.771C435.395 326.436 434.711 325.615 434.711 324.576V324.562C434.711 323.072 436.071 321.972 437.938 321.972C439.804 321.972 441.164 323.072 441.164 324.562V324.576C441.164 325.615 440.48 326.436 439.4 326.771V326.798C440.665 327.092 441.52 328.104 441.52 329.32V329.334C441.52 330.988 440.029 332.164 437.938 332.164ZM437.938 326.312C439.127 326.312 439.94 325.636 439.94 324.679V324.665C439.94 323.708 439.127 323.031 437.938 323.031C436.748 323.031 435.935 323.708 435.935 324.665V324.679C435.935 325.636 436.748 326.312 437.938 326.312ZM437.938 331.091C439.298 331.091 440.269 330.325 440.269 329.259V329.245C440.269 328.165 439.305 327.393 437.938 327.393C436.57 327.393 435.606 328.165 435.606 329.245V329.259C435.606 330.325 436.577 331.091 437.938 331.091ZM448.089 332.137C446.783 332.137 446.141 331.549 446.141 330.188V325.875H445.102V324.891H446.141V322.97H447.371V324.891H448.725V325.875H447.371V330.182C447.371 330.94 447.706 331.152 448.342 331.152C448.485 331.152 448.622 331.132 448.725 331.125V332.089C448.574 332.109 448.321 332.137 448.089 332.137ZM452.744 332.137C450.769 332.137 449.449 330.708 449.449 328.445V328.432C449.449 326.169 450.775 324.754 452.737 324.754C454.699 324.754 456.032 326.162 456.032 328.432V328.445C456.032 330.715 454.706 332.137 452.744 332.137ZM452.751 331.084C454.002 331.084 454.815 330.113 454.815 328.445V328.432C454.815 326.764 453.995 325.807 452.737 325.807C451.5 325.807 450.666 326.771 450.666 328.432V328.445C450.666 330.12 451.493 331.084 452.751 331.084ZM457.331 332V322.136H458.521V328.028H458.548L461.665 324.891H463.107L460.024 327.96L463.203 332H461.822L459.184 328.685L458.521 329.32V332H457.331ZM466.361 334.393H463.395V333.47H465.213V323.065H463.395V322.136H466.361V334.393Z" fill="white" fill-opacity="0.4"/>
<path d="M294 347H565" stroke="white" stroke-opacity="0.1" stroke-dasharray="3 3"/>
<rect x="417" y="534" width="153" height="36" rx="18" fill="white" fill-opacity="0.1"/>
<rect x="427" y="544" width="30" height="16" rx="8" fill="#44CF73"/>
<circle cx="449" cy="552" r="8" fill="white"/>
<path d="M462.82 556V547.545H465.662C468.164 547.545 469.652 549.104 469.652 551.758V551.77C469.652 554.436 468.176 556 465.662 556H462.82ZM463.875 555.051H465.592C467.508 555.051 468.574 553.879 468.574 551.781V551.77C468.574 549.66 467.508 548.494 465.592 548.494H463.875V555.051ZM473.314 556.117C471.562 556.117 470.508 554.893 470.508 552.977V552.971C470.508 551.084 471.586 549.789 473.25 549.789C474.914 549.789 475.928 551.025 475.928 552.854V553.229H471.539C471.562 554.482 472.254 555.215 473.338 555.215C474.111 555.215 474.656 554.828 474.832 554.307L474.85 554.254H475.852L475.84 554.312C475.641 555.32 474.645 556.117 473.314 556.117ZM473.244 550.691C472.359 550.691 471.668 551.295 471.557 552.432H474.891C474.791 551.248 474.135 550.691 473.244 550.691ZM478.441 556L476.197 549.906H477.27L478.951 554.916H478.975L480.662 549.906H481.723L479.484 556H478.441ZM485.145 556V547.545H486.363L489.293 554.67H489.328L492.258 547.545H493.477V556H492.492V549.467H492.457L489.756 556H488.865L486.164 549.467H486.129V556H485.145ZM497.484 556.117C495.791 556.117 494.66 554.893 494.66 552.953V552.941C494.66 551.002 495.797 549.789 497.479 549.789C499.16 549.789 500.303 550.996 500.303 552.941V552.953C500.303 554.898 499.166 556.117 497.484 556.117ZM497.49 555.215C498.562 555.215 499.26 554.383 499.26 552.953V552.941C499.26 551.512 498.557 550.691 497.479 550.691C496.418 550.691 495.703 551.518 495.703 552.941V552.953C495.703 554.389 496.412 555.215 497.49 555.215ZM503.625 556.117C502.066 556.117 501.035 554.875 501.035 552.953V552.947C501.035 551.025 502.078 549.789 503.607 549.789C504.469 549.789 505.178 550.223 505.559 550.926H505.582V547.545H506.602V556H505.582V554.969H505.559C505.178 555.678 504.498 556.117 503.625 556.117ZM503.824 555.215C504.855 555.215 505.588 554.318 505.588 552.953V552.947C505.588 551.588 504.85 550.691 503.824 550.691C502.746 550.691 502.078 551.559 502.078 552.947V552.953C502.078 554.354 502.746 555.215 503.824 555.215ZM510.486 556.117C508.734 556.117 507.68 554.893 507.68 552.977V552.971C507.68 551.084 508.758 549.789 510.422 549.789C512.086 549.789 513.1 551.025 513.1 552.854V553.229H508.711C508.734 554.482 509.426 555.215 510.51 555.215C511.283 555.215 511.828 554.828 512.004 554.307L512.021 554.254H513.023L513.012 554.312C512.812 555.32 511.816 556.117 510.486 556.117ZM510.416 550.691C509.531 550.691 508.84 551.295 508.729 552.432H512.062C511.963 551.248 511.307 550.691 510.416 550.691ZM514.758 551.547C514.383 551.547 514.09 551.254 514.09 550.879C514.09 550.504 514.383 550.211 514.758 550.211C515.133 550.211 515.426 550.504 515.426 550.879C515.426 551.254 515.133 551.547 514.758 551.547ZM514.758 556.082C514.383 556.082 514.09 555.789 514.09 555.414C514.09 555.039 514.383 554.746 514.758 554.746C515.133 554.746 515.426 555.039 515.426 555.414C515.426 555.789 515.133 556.082 514.758 556.082ZM519.328 556V547.545H524.566V548.494H520.383V551.207H524.35V552.145H520.383V555.051H524.566V556H519.328ZM525.803 556V549.906H526.822V550.773H526.846C527.174 550.205 527.795 549.789 528.721 549.789C530.057 549.789 530.83 550.656 530.83 552.045V556H529.811V552.227C529.811 551.236 529.348 550.691 528.41 550.691C527.449 550.691 526.822 551.377 526.822 552.414V556H525.803ZM533.912 556.117C532.699 556.117 531.885 555.385 531.885 554.277V554.266C531.885 553.229 532.693 552.578 534.094 552.496L535.84 552.396V551.887C535.84 551.143 535.354 550.691 534.504 550.691C533.719 550.691 533.227 551.066 533.109 551.611L533.098 551.664H532.113L532.119 551.6C532.207 550.598 533.08 549.789 534.516 549.789C535.957 549.789 536.859 550.568 536.859 551.787V556H535.84V555.01H535.816C535.459 555.678 534.727 556.117 533.912 556.117ZM532.928 554.277C532.928 554.863 533.408 555.232 534.141 555.232C535.102 555.232 535.84 554.57 535.84 553.686V553.188L534.211 553.287C533.396 553.334 532.928 553.697 532.928 554.266V554.277ZM541.184 556.117C540.311 556.117 539.631 555.678 539.25 554.969H539.227V556H538.207V547.545H539.227V550.926H539.25C539.631 550.223 540.34 549.789 541.201 549.789C542.73 549.789 543.773 551.025 543.773 552.947V552.953C543.773 554.875 542.742 556.117 541.184 556.117ZM540.984 555.215C542.062 555.215 542.73 554.354 542.73 552.953V552.947C542.73 551.559 542.062 550.691 540.984 550.691C539.959 550.691 539.221 551.588 539.221 552.947V552.953C539.221 554.318 539.953 555.215 540.984 555.215ZM544.852 556V547.545H545.871V556H544.852ZM549.756 556.117C548.004 556.117 546.949 554.893 546.949 552.977V552.971C546.949 551.084 548.027 549.789 549.691 549.789C551.355 549.789 552.369 551.025 552.369 552.854V553.229H547.98C548.004 554.482 548.695 555.215 549.779 555.215C550.553 555.215 551.098 554.828 551.273 554.307L551.291 554.254H552.293L552.281 554.312C552.082 555.32 551.086 556.117 549.756 556.117ZM549.686 550.691C548.801 550.691 548.109 551.295 547.998 552.432H551.332C551.232 551.248 550.576 550.691 549.686 550.691ZM555.691 556.117C554.133 556.117 553.102 554.875 553.102 552.953V552.947C553.102 551.025 554.145 549.789 555.674 549.789C556.535 549.789 557.244 550.223 557.625 550.926H557.648V547.545H558.668V556H557.648V554.969H557.625C557.244 555.678 556.564 556.117 555.691 556.117ZM555.891 555.215C556.922 555.215 557.654 554.318 557.654 552.953V552.947C557.654 551.588 556.916 550.691 555.891 550.691C554.812 550.691 554.145 551.559 554.145 552.947V552.953C554.145 554.354 554.812 555.215 555.891 555.215Z" fill="white"/>
<path d="M52.9166 46.572V45.4281C52.9166 44.0656 52.9166 43.3844 52.6628 42.7718C52.4091 42.1592 51.9274 41.6775 50.964 40.7141L50.2858 40.036C49.3224 39.0726 48.8408 38.5908 48.2282 38.3371C47.6156 38.0834 46.9343 38.0834 45.5718 38.0834H44.428C43.0655 38.0834 42.3843 38.0834 41.7717 38.3371C41.1591 38.5908 40.6774 39.0726 39.714 40.036L39.0359 40.7141C38.0724 41.6775 37.5907 42.1592 37.337 42.7718C37.0833 43.3844 37.0833 44.0656 37.0833 45.4281V46.572C37.0833 47.9345 37.0833 48.6157 37.337 49.2283C37.5907 49.8409 38.0724 50.3225 39.0359 51.286L39.714 51.9641C40.6774 52.9275 41.1591 53.4092 41.7717 53.663C42.3843 53.9167 43.0655 53.9167 44.428 53.9167H45.5718C46.9343 53.9167 47.6156 53.9167 48.2282 53.663C48.8408 53.4092 49.3224 52.9275 50.2858 51.9641L50.964 51.286C51.9274 50.3225 52.4091 49.8409 52.6628 49.2283C52.9166 48.6157 52.9166 47.9345 52.9166 46.572Z" fill="white" stroke="white" stroke-linecap="round" stroke-linejoin="round"/>
<path d="M45 49.3334V45.5834" stroke="#0F0F0F" stroke-width="1.3" stroke-linecap="round" stroke-linejoin="round"/>
<path d="M45 42.6781V42.6681" stroke="#0F0F0F" stroke-width="1.5" stroke-linecap="round" stroke-linejoin="round"/>
<path d="M61.2305 52.5V39.8174H65.4932C69.2461 39.8174 71.4785 42.1553 71.4785 46.1367V46.1543C71.4785 50.1533 69.2637 52.5 65.4932 52.5H61.2305ZM62.8125 51.0762H65.3877C68.2617 51.0762 69.8613 49.3184 69.8613 46.1719V46.1543C69.8613 42.9902 68.2617 41.2412 65.3877 41.2412H62.8125V51.0762ZM76.9717 52.6758C74.3438 52.6758 72.7617 50.8389 72.7617 47.9648V47.9561C72.7617 45.126 74.3789 43.1836 76.875 43.1836C79.3711 43.1836 80.8916 45.0381 80.8916 47.7803V48.3428H74.3086C74.3438 50.2236 75.3809 51.3223 77.0068 51.3223C78.167 51.3223 78.9844 50.7422 79.248 49.96L79.2744 49.8809H80.7773L80.7598 49.9688C80.4609 51.4805 78.9668 52.6758 76.9717 52.6758ZM76.8662 44.5371C75.5391 44.5371 74.502 45.4424 74.335 47.1475H79.3359C79.1865 45.3721 78.2021 44.5371 76.8662 44.5371ZM82.4385 55.5762V43.3594H83.9678V44.9062H84.0029C84.5742 43.8428 85.5938 43.1836 86.9033 43.1836C89.2412 43.1836 90.7881 45.0469 90.7881 47.9297V47.9385C90.7881 50.8213 89.2236 52.6758 86.9297 52.6758C85.6377 52.6758 84.5742 52.0254 84.0029 50.9707H83.9678V55.5762H82.4385ZM86.6045 51.3223C88.2217 51.3223 89.2236 50.0215 89.2236 47.9385V47.9297C89.2236 45.8291 88.2217 44.5371 86.6045 44.5371C85.0576 44.5371 83.959 45.8818 83.959 47.9297V47.9385C83.959 49.9775 85.0664 51.3223 86.6045 51.3223ZM92.4141 52.5V39.8174H93.9434V52.5H92.4141ZM99.7969 52.6758C97.2568 52.6758 95.5605 50.8389 95.5605 47.9297V47.9121C95.5605 45.0029 97.2656 43.1836 99.7881 43.1836C102.311 43.1836 104.024 44.9941 104.024 47.9121V47.9297C104.024 50.8477 102.319 52.6758 99.7969 52.6758ZM99.8057 51.3223C101.414 51.3223 102.46 50.0742 102.46 47.9297V47.9121C102.46 45.7676 101.405 44.5371 99.7881 44.5371C98.1973 44.5371 97.125 45.7764 97.125 47.9121V47.9297C97.125 50.083 98.1885 51.3223 99.8057 51.3223ZM106.099 55.5762C105.8 55.5762 105.475 55.541 105.281 55.5059V54.2578C105.413 54.2842 105.589 54.3105 105.773 54.3105C106.74 54.3105 107.276 54.0645 107.646 53.0273L107.83 52.5088L104.438 43.3594H106.072L108.595 50.9707H108.63L111.161 43.3594H112.77L109.201 53.0713C108.551 54.8203 107.751 55.5762 106.099 55.5762ZM114.835 41.8125C114.308 41.8125 113.877 41.3818 113.877 40.8545C113.877 40.3184 114.308 39.8965 114.835 39.8965C115.371 39.8965 115.793 40.3184 115.793 40.8545C115.793 41.3818 115.371 41.8125 114.835 41.8125ZM114.07 52.5V43.3594H115.6V52.5H114.07ZM117.683 52.5V43.3594H119.212V44.6602H119.247C119.739 43.8076 120.671 43.1836 122.06 43.1836C124.063 43.1836 125.224 44.4844 125.224 46.5674V52.5H123.694V46.8398C123.694 45.3545 123 44.5371 121.594 44.5371C120.152 44.5371 119.212 45.5654 119.212 47.1211V52.5H117.683ZM131.042 55.752C128.783 55.752 127.359 54.6885 127.061 53.335L127.043 53.2559H128.581L128.616 53.335C128.906 53.9941 129.776 54.3984 131.024 54.3984C132.633 54.3984 133.547 53.5107 133.547 52.0957V50.9268H133.512C132.967 51.9375 131.912 52.5879 130.603 52.5879C128.3 52.5879 126.727 50.7334 126.727 47.877V47.8682C126.727 45.0293 128.317 43.1836 130.638 43.1836C131.93 43.1836 132.949 43.8867 133.512 44.9062H133.547V43.3594H135.076V52.2451C135.076 54.3633 133.521 55.752 131.042 55.752ZM130.937 51.2344C132.492 51.2344 133.547 49.9072 133.547 47.877V47.8682C133.547 45.8555 132.483 44.5371 130.937 44.5371C129.311 44.5371 128.291 45.8379 128.291 47.8682V47.877C128.291 49.9512 129.311 51.2344 130.937 51.2344ZM137.994 45.8203C137.432 45.8203 136.992 45.3809 136.992 44.8184C136.992 44.2559 137.432 43.8164 137.994 43.8164C138.557 43.8164 138.996 44.2559 138.996 44.8184C138.996 45.3809 138.557 45.8203 137.994 45.8203ZM137.994 52.623C137.432 52.623 136.992 52.1836 136.992 51.6211C136.992 51.0586 137.432 50.6191 137.994 50.6191C138.557 50.6191 138.996 51.0586 138.996 51.6211C138.996 52.1836 138.557 52.623 137.994 52.623ZM144.85 52.5V39.8174H146.678L151.072 50.5049H151.125L155.52 39.8174H157.348V52.5H155.871V42.7002H155.818L151.767 52.5H150.431L146.379 42.7002H146.326V52.5H144.85ZM160.433 41.8125C159.905 41.8125 159.475 41.3818 159.475 40.8545C159.475 40.3184 159.905 39.8965 160.433 39.8965C160.969 39.8965 161.391 40.3184 161.391 40.8545C161.391 41.3818 160.969 41.8125 160.433 41.8125ZM159.668 52.5V43.3594H161.197V52.5H159.668ZM166.523 52.6758C164.37 52.6758 163.069 51.5771 162.885 49.9424L162.876 49.8633H164.405L164.423 49.9512C164.607 50.8652 165.284 51.4014 166.532 51.4014C167.771 51.4014 168.51 50.8828 168.51 50.0566V50.0479C168.51 49.3887 168.167 49.0195 167.13 48.7646L165.68 48.4131C163.957 48 163.122 47.2002 163.122 45.8818V45.873C163.122 44.2998 164.502 43.1836 166.479 43.1836C168.483 43.1836 169.758 44.3525 169.872 45.8818L169.881 45.9961H168.422L168.413 45.9346C168.29 45.0469 167.613 44.458 166.479 44.458C165.372 44.458 164.687 44.9941 164.687 45.8027V45.8115C164.687 46.4355 165.1 46.8662 166.11 47.1123L167.561 47.4639C169.406 47.9121 170.074 48.6416 170.074 49.9424V49.9512C170.074 51.5508 168.562 52.6758 166.523 52.6758ZM174.636 52.6758C172.957 52.6758 172.131 51.9199 172.131 50.1709V44.625H170.795V43.3594H172.131V40.8896H173.713V43.3594H175.453V44.625H173.713V50.1621C173.713 51.1377 174.144 51.4102 174.961 51.4102C175.146 51.4102 175.321 51.3838 175.453 51.375V52.6143C175.26 52.6406 174.935 52.6758 174.636 52.6758ZM177.097 52.5V43.3594H178.626V44.9062H178.661C178.969 43.8516 179.76 43.1836 180.788 43.1836C181.052 43.1836 181.28 43.2275 181.403 43.2451V44.7305C181.28 44.6865 180.955 44.6426 180.586 44.6426C179.399 44.6426 178.626 45.4688 178.626 46.8574V52.5H177.097ZM185.147 52.6758C183.328 52.6758 182.106 51.5771 182.106 49.916V49.8984C182.106 48.3428 183.319 47.3672 185.42 47.2441L188.039 47.0947V46.3301C188.039 45.2139 187.31 44.5371 186.035 44.5371C184.857 44.5371 184.119 45.0996 183.943 45.917L183.926 45.9961H182.449L182.458 45.8994C182.59 44.3965 183.899 43.1836 186.053 43.1836C188.215 43.1836 189.568 44.3525 189.568 46.1807V52.5H188.039V51.0146H188.004C187.468 52.0166 186.369 52.6758 185.147 52.6758ZM183.671 49.916C183.671 50.7949 184.392 51.3486 185.49 51.3486C186.932 51.3486 188.039 50.3555 188.039 49.0283V48.2812L185.596 48.4307C184.374 48.501 183.671 49.0459 183.671 49.8984V49.916ZM191.59 52.5V39.8174H193.119V52.5H191.59ZM195.237 48.0703V46.6465H200.862V48.0703H195.237ZM203.666 52.5L209.405 41.2588V41.2236H202.576V39.8174H210.97V41.2852L205.327 52.5H203.666ZM212.982 52.5V39.8174H217.79C219.961 39.8174 221.429 41.083 221.429 42.9814V42.999C221.429 44.3086 220.444 45.583 219.135 45.7676V45.8027C220.963 46.0137 222.07 47.2441 222.07 48.9229V48.9404C222.07 51.1729 220.471 52.5 217.772 52.5H212.982ZM217.43 41.2148H214.564V45.2842H216.938C218.81 45.2842 219.829 44.5371 219.829 43.166V43.1484C219.829 41.9004 218.959 41.2148 217.43 41.2148ZM217.386 46.6465H214.564V51.1025H217.535C219.434 51.1025 220.444 50.3379 220.444 48.8789V48.8613C220.444 47.3936 219.407 46.6465 217.386 46.6465ZM230.49 55.5762C228.776 53.4053 227.994 50.8213 227.994 47.6924C227.994 44.5635 228.776 41.9971 230.49 39.8174H231.773C230.508 41.2852 229.55 44.7568 229.55 47.6924C229.55 50.6279 230.508 54.1084 231.773 55.5762H230.49ZM238.717 52.7109C235.113 52.7109 232.863 50.1885 232.863 46.1631V46.1455C232.863 42.1289 235.122 39.6064 238.717 39.6064C242.303 39.6064 244.553 42.1289 244.553 46.1455V46.1631C244.553 48.624 243.718 50.5137 242.25 51.6211L243.929 53.9326H242.153L240.984 52.3154C240.308 52.5791 239.543 52.7109 238.717 52.7109ZM238.717 51.252C239.2 51.252 239.648 51.1816 240.062 51.0498L238.471 48.8701H240.246L241.327 50.3555C242.347 49.4854 242.927 48.0176 242.927 46.1631V46.1455C242.927 43.0342 241.301 41.0654 238.717 41.0654C236.124 41.0654 234.489 43.0254 234.489 46.1455V46.1631C234.489 49.2832 236.115 51.252 238.717 51.252ZM252.349 52.5V49.8633H245.977V48.4307L251.54 39.8174H253.878V48.4746H255.671V49.8633H253.878V52.5H252.349ZM247.541 48.4746H252.349V41.1709H252.296L247.541 48.4395V48.4746ZM256.172 54.8027V53.3789H265.655V54.8027H256.172ZM271.113 52.7109C268.195 52.7109 266.464 50.1885 266.464 46.1631V46.1455C266.464 42.1201 268.195 39.6064 271.113 39.6064C274.031 39.6064 275.78 42.1201 275.78 46.1455V46.1631C275.78 50.1885 274.031 52.7109 271.113 52.7109ZM271.113 51.3311C273.047 51.3311 274.189 49.3447 274.189 46.1631V46.1455C274.189 42.9639 273.047 40.9951 271.113 40.9951C269.18 40.9951 268.055 42.9639 268.055 46.1455V46.1631C268.055 49.3447 269.18 51.3311 271.113 51.3311ZM278.215 55.5762H276.932C278.197 54.1084 279.155 50.6279 279.155 47.6924C279.155 44.7568 278.197 41.2852 276.932 39.8174H278.215C279.929 41.9971 280.711 44.5635 280.711 47.6924C280.711 50.8213 279.929 53.4053 278.215 55.5762Z" fill="white"/>
<g clip-path="url(#clip0_1154_120)">
<rect x="303" y="43.5" width="262" height="5" rx="2.5" fill="white" fill-opacity="0.1"/>
<rect x="303" y="43.5" width="150" height="5" rx="2.5" fill="#195CE1"/>
</g>
<defs>
<clipPath id="clip0_1154_120">
<rect x="303" y="43.5" width="262" height="5" rx="2.5" fill="white"/>
</clipPath>
</defs>
</svg>
