<svg width="23" height="23" viewBox="0 0 23 23" fill="none" xmlns="http://www.w3.org/2000/svg">
<path d="M4.16675 11.5C4.16675 8.04299 4.16675 6.31451 5.24069 5.24057C6.31464 4.16663 8.04311 4.16663 11.5001 4.16663C14.957 4.16663 16.6856 4.16663 17.7594 5.24057C18.8334 6.31451 18.8334 8.04299 18.8334 11.5C18.8334 14.9569 18.8334 16.6855 17.7594 17.7593C16.6856 18.8333 14.957 18.8333 11.5001 18.8333C8.04311 18.8333 6.31464 18.8333 5.24069 17.7593C4.16675 16.6855 4.16675 14.9569 4.16675 11.5Z" fill="#D1D1D1" stroke="#D1D1D1" stroke-linejoin="round"/>
<path d="M7.375 14.25L9.0634 9.18481C9.14995 8.92515 9.39295 8.75 9.66667 8.75C9.94038 8.75 10.1834 8.92515 10.2699 9.18481L11.9583 14.25M8.29167 12.4167H11.0417" stroke="#191919" stroke-linecap="round" stroke-linejoin="round"/>
<path d="M14.7083 8.75V14.25" stroke="#191919" stroke-linecap="round" stroke-linejoin="round"/>
<path d="M7.83325 2.33337V4.16671M15.1666 2.33337V4.16671M11.4999 2.33337V4.16671M7.83325 18.8334V20.6667M11.4999 18.8334V20.6667M15.1666 18.8334V20.6667M20.6666 15.1667H18.8333M4.16659 7.83337H2.33325M4.16659 15.1667H2.33325M4.16659 11.5H2.33325M20.6666 7.83337H18.8333M20.6666 11.5H18.8333" stroke="#D1D1D1" stroke-linecap="round" stroke-linejoin="round"/>
</svg>
