<svg width="18" height="19" viewBox="0 0 18 19" fill="none" xmlns="http://www.w3.org/2000/svg">
<path d="M15.75 8.88748V6.71022C15.75 5.48022 15.75 4.86521 15.4469 4.46397C15.1439 4.06272 14.4586 3.86792 13.088 3.47833C12.1517 3.21215 11.3262 2.89147 10.6667 2.59872C9.76755 2.19957 9.318 2 9 2C8.682 2 8.23245 2.19957 7.33328 2.59872C6.67379 2.89147 5.84838 3.21214 4.912 3.47833C3.54145 3.86792 2.85616 4.06272 2.55308 4.46397C2.25 4.86521 2.25 5.48022 2.25 6.71022V8.88748C2.25 13.1064 6.04708 15.6376 7.9455 16.6396C8.40083 16.8799 8.62845 17 9 17C9.37155 17 9.59918 16.8799 10.0545 16.6396C11.9529 15.6376 15.75 13.1064 15.75 8.88748Z" fill="#98A2B3" stroke="#98A2B3" stroke-width="0.5" stroke-linecap="round"/>
</svg>
